<?xml version="1.0" encoding="utf-8"?>
<!-- Generator: Adobe Illustrator 16.0.4, SVG Export Plug-In . SVG Version: 6.00 Build 0)  -->
<!DOCTYPE svg PUBLIC "-//W3C//DTD SVG 1.1//EN" "http://www.w3.org/Graphics/SVG/1.1/DTD/svg11.dtd">
<svg version="1.1" id="Layer_1" xmlns="http://www.w3.org/2000/svg" xmlns:xlink="http://www.w3.org/1999/xlink" x="0px" y="0px"
	 width="625.038px" height="358px" viewBox="0 0 625.038 358" enable-background="new 0 0 625.038 358" xml:space="preserve">
<g>
	<polygon fill="#666666" points="89.577,230.569 69.637,197.069 89.577,163.569 129.454,163.569 149.39,197.069 129.454,230.569 	
		"/>
</g>
<g>
	<polygon fill="#666666" points="89.577,304.569 69.637,271.069 89.577,237.569 129.454,237.569 149.39,271.069 129.454,304.569 	
		"/>
</g>
<g>
	<polygon fill="#666666" points="157.195,194.569 137.255,161.069 157.195,127.569 197.073,127.569 217.008,161.069 
		197.073,194.569 	"/>
</g>
<g>
	<polygon fill="#666666" points="157.195,267.569 137.255,234.07 157.195,200.569 197.073,200.569 217.008,234.07 197.073,267.569 	
		"/>
</g>
<g>
	<polygon fill="#666666" points="157.195,340.569 137.255,307.069 157.195,273.569 197.073,273.569 217.008,307.069 
		197.073,340.569 	"/>
</g>
<g>
	<polygon fill="#666666" points="224.814,230.569 204.873,197.069 224.814,163.569 264.691,163.569 284.626,197.069 
		264.691,230.569 	"/>
</g>
<g>
	<polygon fill="#666666" points="224.814,304.569 204.873,271.069 224.814,237.569 264.691,237.569 284.626,271.069 
		264.691,304.569 	"/>
</g>
<g>
	<polygon fill="#666666" points="292.433,194.569 272.492,161.069 292.433,127.569 332.31,127.569 352.245,161.069 332.31,194.569 	
		"/>
</g>
<g>
	<polygon fill="#666666" points="292.433,267.569 272.492,234.07 292.433,200.569 332.31,200.569 352.245,234.07 332.31,267.569 	
		"/>
</g>
<g>
	<polygon fill="#666666" points="292.433,340.569 272.492,307.069 292.433,273.569 332.31,273.569 352.245,307.069 332.31,340.569 	
		"/>
</g>
<g>
	<polygon fill="#666666" points="360.051,84.569 340.11,51.069 360.051,17.569 399.928,17.569 419.863,51.069 399.928,84.569 	"/>
</g>
<g>
	<polygon fill="#666666" points="360.051,157.569 340.11,124.071 360.051,90.569 399.928,90.569 419.863,124.071 399.928,157.569 	
		"/>
</g>
<g>
	<polygon fill="#666666" points="360.051,230.569 340.11,197.069 360.051,163.569 399.928,163.569 419.863,197.069 399.928,230.569 
			"/>
</g>
<g>
	<polygon fill="#666666" points="360.051,304.569 340.11,271.069 360.051,237.569 399.928,237.569 419.863,271.069 399.928,304.569 
			"/>
</g>
<g>
	<polygon fill="#666666" points="427.669,120.569 407.729,87.568 427.669,54.569 467.547,54.569 487.481,87.568 467.547,120.569 	
		"/>
</g>
<g>
	<polygon fill="#666666" points="427.669,194.569 407.729,161.069 427.669,127.569 467.547,127.569 487.481,161.069 
		467.547,194.569 	"/>
</g>
<g>
	<polygon fill="#03DBBB" points="427.669,267.569 407.729,234.07 427.669,200.569 467.547,200.569 487.481,234.07 467.547,267.569 	
		"/>
</g>
<g>
	<polygon fill="#666666" points="427.669,340.569 407.729,307.069 427.669,273.569 467.547,273.569 487.481,307.069 
		467.547,340.569 	"/>
</g>
<g>
	<polygon fill="#666666" points="495.286,157.569 475.346,124.071 495.286,90.569 535.165,90.569 555.101,124.071 535.165,157.569 	
		"/>
</g>
<g>
	<polygon fill="#666666" points="495.286,230.569 475.346,197.069 495.286,163.569 535.165,163.569 555.101,197.069 
		535.165,230.569 	"/>
</g>
<g>
	<polygon fill="#666666" points="495.286,304.569 475.346,271.069 495.286,237.569 535.165,237.569 555.101,271.069 
		535.165,304.569 	"/>
</g>
</svg>
