<?xml version="1.0" encoding="utf-8"?>
<!-- Generator: Adobe Illustrator 16.0.4, SVG Export Plug-In . SVG Version: 6.00 Build 0)  -->
<!DOCTYPE svg PUBLIC "-//W3C//DTD SVG 1.1//EN" "http://www.w3.org/Graphics/SVG/1.1/DTD/svg11.dtd">
<svg version="1.1" id="Layer_1" xmlns="http://www.w3.org/2000/svg" xmlns:xlink="http://www.w3.org/1999/xlink" x="0px" y="0px"
	 width="625.038px" height="358px" viewBox="0 0 625.038 358" enable-background="new 0 0 625.038 358" xml:space="preserve">
<g>
	<polygon fill="#666666" points="89.577,231.044 69.637,197.544 89.577,164.044 129.454,164.044 149.39,197.544 129.454,231.044 	
		"/>
</g>
<g>
	<polygon fill="#666666" points="89.577,304.044 69.637,270.544 89.577,237.044 129.454,237.044 149.39,270.544 129.454,304.044 	
		"/>
</g>
<g>
	<polygon fill="#666666" points="157.195,194.044 137.255,160.544 157.195,127.044 197.073,127.044 217.008,160.544 
		197.073,194.044 	"/>
</g>
<g>
	<polygon fill="#666666" points="157.195,267.044 137.255,234.045 157.195,201.044 197.073,201.044 217.008,234.045 
		197.073,267.044 	"/>
</g>
<g>
	<polygon fill="#666666" points="157.195,341.044 137.255,307.544 157.195,274.044 197.073,274.044 217.008,307.544 
		197.073,341.044 	"/>
</g>
<g>
	<polygon fill="#666666" points="224.814,231.044 204.873,197.544 224.814,164.044 264.691,164.044 284.626,197.544 
		264.691,231.044 	"/>
</g>
<g>
	<polygon fill="#666666" points="224.814,304.044 204.873,270.544 224.814,237.044 264.691,237.044 284.626,270.544 
		264.691,304.044 	"/>
</g>
<g>
	<polygon fill="#666666" points="292.433,194.044 272.492,160.544 292.433,127.044 332.31,127.044 352.245,160.544 332.31,194.044 	
		"/>
</g>
<g>
	<polygon fill="#666666" points="292.433,267.044 272.492,234.045 292.433,201.044 332.31,201.044 352.245,234.045 332.31,267.044 	
		"/>
</g>
<g>
	<polygon fill="#666666" points="292.433,341.044 272.492,307.544 292.433,274.044 332.31,274.044 352.245,307.544 332.31,341.044 	
		"/>
</g>
<g>
	<polygon fill="#ED675A" points="360.051,84.044 340.11,50.544 360.051,17.044 399.928,17.044 419.863,50.544 399.928,84.044 	"/>
</g>
<g>
	<polygon fill="#666666" points="360.051,158.044 340.11,124.546 360.051,91.044 399.928,91.044 419.863,124.546 399.928,158.044 	
		"/>
</g>
<g>
	<polygon fill="#666666" points="360.051,231.044 340.11,197.544 360.051,164.044 399.928,164.044 419.863,197.544 399.928,231.044 
			"/>
</g>
<g>
	<polygon fill="#666666" points="360.051,304.044 340.11,270.544 360.051,237.044 399.928,237.044 419.863,270.544 399.928,304.044 
			"/>
</g>
<g>
	<polygon fill="#666666" points="427.669,121.044 407.729,87.543 427.669,54.044 467.547,54.044 487.481,87.543 467.547,121.044 	
		"/>
</g>
<g>
	<polygon fill="#666666" points="427.669,194.044 407.729,160.544 427.669,127.044 467.547,127.044 487.481,160.544 
		467.547,194.044 	"/>
</g>
<g>
	<polygon fill="#666666" points="427.669,267.044 407.729,234.045 427.669,201.044 467.547,201.044 487.481,234.045 
		467.547,267.044 	"/>
</g>
<g>
	<polygon fill="#666666" points="427.669,341.044 407.729,307.544 427.669,274.044 467.547,274.044 487.481,307.544 
		467.547,341.044 	"/>
</g>
<g>
	<polygon fill="#666666" points="495.286,158.044 475.346,124.546 495.286,91.044 535.165,91.044 555.101,124.546 535.165,158.044 	
		"/>
</g>
<g>
	<polygon fill="#666666" points="495.286,231.044 475.346,197.544 495.286,164.044 535.165,164.044 555.101,197.544 
		535.165,231.044 	"/>
</g>
<g>
	<polygon fill="#666666" points="495.286,304.044 475.346,270.544 495.286,237.044 535.165,237.044 555.101,270.544 
		535.165,304.044 	"/>
</g>
</svg>
