<?xml version="1.0" encoding="utf-8"?>
<!-- Generator: Adobe Illustrator 16.0.4, SVG Export Plug-In . SVG Version: 6.00 Build 0)  -->
<!DOCTYPE svg PUBLIC "-//W3C//DTD SVG 1.1//EN" "http://www.w3.org/Graphics/SVG/1.1/DTD/svg11.dtd">
<svg version="1.1" id="Layer_1" xmlns="http://www.w3.org/2000/svg" xmlns:xlink="http://www.w3.org/1999/xlink" x="0px" y="0px"
	 width="625.038px" height="358px" viewBox="0 0 625.038 358" enable-background="new 0 0 625.038 358" xml:space="preserve">
<g>
	<polygon fill="#666666" points="89.577,231.021 69.637,197.521 89.577,164.021 129.454,164.021 149.39,197.521 129.454,231.021 	
		"/>
</g>
<g>
	<polygon fill="#F8CF51" points="89.577,304.021 69.637,270.521 89.577,237.021 129.454,237.021 149.39,270.521 129.454,304.021 	
		"/>
</g>
<g>
	<polygon fill="#666666" points="157.195,194.021 137.255,160.521 157.195,127.021 197.073,127.021 217.008,160.521 
		197.073,194.021 	"/>
</g>
<g>
	<polygon fill="#666666" points="157.195,267.021 137.255,234.021 157.195,201.021 197.073,201.021 217.008,234.021 
		197.073,267.021 	"/>
</g>
<g>
	<polygon fill="#666666" points="157.195,341.021 137.255,307.521 157.195,274.021 197.073,274.021 217.008,307.521 
		197.073,341.021 	"/>
</g>
<g>
	<polygon fill="#666666" points="224.814,231.021 204.873,197.521 224.814,164.021 264.691,164.021 284.626,197.521 
		264.691,231.021 	"/>
</g>
<g>
	<polygon fill="#666666" points="224.814,304.021 204.873,270.521 224.814,237.021 264.691,237.021 284.626,270.521 
		264.691,304.021 	"/>
</g>
<g>
	<polygon fill="#666666" points="292.433,194.021 272.492,160.521 292.433,127.021 332.31,127.021 352.245,160.521 332.31,194.021 	
		"/>
</g>
<g>
	<polygon fill="#666666" points="292.433,267.021 272.492,234.021 292.433,201.021 332.31,201.021 352.245,234.021 332.31,267.021 	
		"/>
</g>
<g>
	<polygon fill="#666666" points="292.433,341.021 272.492,307.521 292.433,274.021 332.31,274.021 352.245,307.521 332.31,341.021 	
		"/>
</g>
<g>
	<polygon fill="#666666" points="360.051,84.021 340.11,50.521 360.051,17.021 399.928,17.021 419.863,50.521 399.928,84.021 	"/>
</g>
<g>
	<polygon fill="#666666" points="360.051,158.021 340.11,124.522 360.051,91.021 399.928,91.021 419.863,124.522 399.928,158.021 	
		"/>
</g>
<g>
	<polygon fill="#666666" points="360.051,231.021 340.11,197.521 360.051,164.021 399.928,164.021 419.863,197.521 399.928,231.021 
			"/>
</g>
<g>
	<polygon fill="#666666" points="360.051,304.021 340.11,270.521 360.051,237.021 399.928,237.021 419.863,270.521 399.928,304.021 
			"/>
</g>
<g>
	<polygon fill="#666666" points="427.669,121.021 407.729,87.52 427.669,54.021 467.547,54.021 487.481,87.52 467.547,121.021 	"/>
</g>
<g>
	<polygon fill="#666666" points="427.669,194.021 407.729,160.521 427.669,127.021 467.547,127.021 487.481,160.521 
		467.547,194.021 	"/>
</g>
<g>
	<polygon fill="#666666" points="427.669,267.021 407.729,234.021 427.669,201.021 467.547,201.021 487.481,234.021 
		467.547,267.021 	"/>
</g>
<g>
	<polygon fill="#666666" points="427.669,341.021 407.729,307.521 427.669,274.021 467.547,274.021 487.481,307.521 
		467.547,341.021 	"/>
</g>
<g>
	<polygon fill="#666666" points="495.286,158.021 475.346,124.522 495.286,91.021 535.165,91.021 555.101,124.522 535.165,158.021 	
		"/>
</g>
<g>
	<polygon fill="#666666" points="495.286,231.021 475.346,197.521 495.286,164.021 535.165,164.021 555.101,197.521 
		535.165,231.021 	"/>
</g>
<g>
	<polygon fill="#666666" points="495.286,304.021 475.346,270.521 495.286,237.021 535.165,237.021 555.101,270.521 
		535.165,304.021 	"/>
</g>
</svg>
