<?xml version="1.0" encoding="utf-8"?>
<!-- Generator: Adobe Illustrator 16.0.4, SVG Export Plug-In . SVG Version: 6.00 Build 0)  -->
<!DOCTYPE svg PUBLIC "-//W3C//DTD SVG 1.1//EN" "http://www.w3.org/Graphics/SVG/1.1/DTD/svg11.dtd">
<svg version="1.1" id="Layer_1" xmlns="http://www.w3.org/2000/svg" xmlns:xlink="http://www.w3.org/1999/xlink" x="0px" y="0px"
	 width="625.038px" height="358px" viewBox="0 0 625.038 358" enable-background="new 0 0 625.038 358" xml:space="preserve">
<g>
	<g>
		<path fill="#F2F2F2" d="M128.318,165.52l18.743,31.5l-18.743,31.5H90.713l-18.747-31.5l18.747-31.5H128 M129.454,163.52H89.577
			l-19.94,33.5l19.94,33.5h39.877l19.936-33.5L129.454,163.52L129.454,163.52z"/>
	</g>
</g>
<g>
	<g>
		<path fill="#F2F2F2" d="M128.318,239.52l18.743,31.5l-18.743,31.5H90.713l-18.747-31.5l18.747-31.5H128 M129.454,237.52H89.577
			l-19.94,33.5l19.94,33.5h39.877l19.936-33.5L129.454,237.52L129.454,237.52z"/>
	</g>
</g>
<g>
	<g>
		<path fill="#F2F2F2" d="M195.938,129.52l18.742,31.5l-18.742,31.5h-37.606l-18.747-31.5l18.747-31.5H196 M197.073,127.52h-39.878
			l-19.94,33.5l19.94,33.5h39.878l19.935-33.5L197.073,127.52L197.073,127.52z"/>
	</g>
</g>
<g>
	<g>
		<path fill="#F2F2F2" d="M195.938,202.52l18.742,31.501l-18.742,31.499h-37.606l-18.747-31.499l18.747-31.501H196 M197.073,200.52
			h-39.878l-19.94,33.501l19.94,33.499h39.878l19.935-33.499L197.073,200.52L197.073,200.52z"/>
	</g>
</g>
<g>
	<g>
		<path fill="#F2F2F2" d="M195.938,275.52l18.742,31.5l-18.742,31.5h-37.606l-18.747-31.5l18.747-31.5H196 M197.073,273.52h-39.878
			l-19.94,33.5l19.94,33.5h39.878l19.935-33.5L197.073,273.52L197.073,273.52z"/>
	</g>
</g>
<g>
	<g>
		<path fill="#F2F2F2" d="M263.556,165.52l18.742,31.5l-18.742,31.5H225.95l-18.748-31.5l18.748-31.5H264 M264.691,163.52h-39.877
			l-19.941,33.5l19.941,33.5h39.877l19.935-33.5L264.691,163.52L264.691,163.52z"/>
	</g>
</g>
<g>
	<g>
		<path fill="#F2F2F2" d="M263.556,239.52l18.742,31.5l-18.742,31.5H225.95l-18.748-31.5l18.748-31.5H264 M264.691,237.52h-39.877
			l-19.941,33.5l19.941,33.5h39.877l19.935-33.5L264.691,237.52L264.691,237.52z"/>
	</g>
</g>
<g>
	<g>
		<path fill="#F2F2F2" d="M331.174,129.52l18.743,31.5l-18.743,31.5h-37.605l-18.747-31.5l18.747-31.5H331 M332.31,127.52h-39.877
			l-19.94,33.5l19.94,33.5h39.877l19.936-33.5L332.31,127.52L332.31,127.52z"/>
	</g>
</g>
<g>
	<g>
		<path fill="#F2F2F2" d="M331.174,202.52l18.743,31.501l-18.743,31.499h-37.605l-18.747-31.499l18.747-31.501H331 M332.31,200.52
			h-39.877l-19.94,33.501l19.94,33.499h39.877l19.936-33.499L332.31,200.52L332.31,200.52z"/>
	</g>
</g>
<g>
	<g>
		<path fill="#F2F2F2" d="M331.174,275.52l18.743,31.5l-18.743,31.5h-37.605l-18.747-31.5l18.747-31.5H331 M332.31,273.52h-39.877
			l-19.94,33.5l19.94,33.5h39.877l19.936-33.5L332.31,273.52L332.31,273.52z"/>
	</g>
</g>
<g>
	<g>
		<path fill="#F2F2F2" d="M398.792,19.52l18.743,31.5l-18.743,31.5h-37.605l-18.747-31.5l18.747-31.5H399 M399.928,17.52h-39.877
			l-19.94,33.5l19.94,33.5h39.877l19.936-33.5L399.928,17.52L399.928,17.52z"/>
	</g>
</g>
<g>
	<g>
		<path fill="#F2F2F2" d="M398.792,92.52l18.743,31.502l-18.743,31.498h-37.605l-18.747-31.498l18.747-31.502H399 M399.928,90.52
			h-39.877l-19.94,33.502l19.94,33.498h39.877l19.936-33.498L399.928,90.52L399.928,90.52z"/>
	</g>
</g>
<g>
	<g>
		<path fill="#F2F2F2" d="M398.792,165.52l18.743,31.5l-18.743,31.5h-37.605l-18.747-31.5l18.747-31.5H399 M399.928,163.52h-39.877
			l-19.94,33.5l19.94,33.5h39.877l19.936-33.5L399.928,163.52L399.928,163.52z"/>
	</g>
</g>
<g>
	<g>
		<path fill="#F2F2F2" d="M398.792,239.52l18.743,31.5l-18.743,31.5h-37.605l-18.747-31.5l18.747-31.5H399 M399.928,237.52h-39.877
			l-19.94,33.5l19.94,33.5h39.877l19.936-33.5L399.928,237.52L399.928,237.52z"/>
	</g>
</g>
<g>
	<g>
		<path fill="#03DBBB" d="M466.411,56.52l18.742,30.999l-18.742,31.001h-37.606l-18.747-31.001l18.747-30.999H466 M467.547,54.52
			h-39.878l-19.94,32.999l19.94,33.001h39.878l19.935-33.001L467.547,54.52L467.547,54.52z"/>
	</g>
</g>
<g>
	<g>
		<path fill="#F2F2F2" d="M466.411,129.52l18.742,31.5l-18.742,31.5h-37.606l-18.747-31.5l18.747-31.5H466 M467.547,127.52h-39.878
			l-19.94,33.5l19.94,33.5h39.878l19.935-33.5L467.547,127.52L467.547,127.52z"/>
	</g>
</g>
<g>
	<g>
		<path fill="#F2F2F2" d="M466.411,202.52l18.742,31.501l-18.742,31.499h-37.606l-18.747-31.499l18.747-31.501H466 M467.547,200.52
			h-39.878l-19.94,33.501l19.94,33.499h39.878l19.935-33.499L467.547,200.52L467.547,200.52z"/>
	</g>
</g>
<g>
	<g>
		<path fill="#F2F2F2" d="M466.411,275.52l18.742,31.5l-18.742,31.5h-37.606l-18.747-31.5l18.747-31.5H466 M467.547,273.52h-39.878
			l-19.94,33.5l19.94,33.5h39.878l19.935-33.5L467.547,273.52L467.547,273.52z"/>
	</g>
</g>
<g>
	<g>
		<path fill="#F2F2F2" d="M534.029,92.52l18.743,31.502l-18.743,31.498h-37.607l-18.747-31.498l18.747-31.502H534 M535.165,90.52
			h-39.879l-19.94,33.502l19.94,33.498h39.879l19.936-33.498L535.165,90.52L535.165,90.52z"/>
	</g>
</g>
<g>
	<g>
		<path fill="#F2F2F2" d="M534.029,165.52l18.743,31.5l-18.743,31.5h-37.607l-18.747-31.5l18.747-31.5H534 M535.165,163.52h-39.879
			l-19.94,33.5l19.94,33.5h39.879l19.936-33.5L535.165,163.52L535.165,163.52z"/>
	</g>
</g>
<g>
	<g>
		<path fill="#F2F2F2" d="M534.029,239.52l18.743,31.5l-18.743,31.5h-37.607l-18.747-31.5l18.747-31.5H534 M535.165,237.52h-39.879
			l-19.94,33.5l19.94,33.5h39.879l19.936-33.5L535.165,237.52L535.165,237.52z"/>
	</g>
</g>
</svg>
