<?xml version="1.0" encoding="utf-8"?>
<!-- Generator: Adobe Illustrator 16.0.4, SVG Export Plug-In . SVG Version: 6.00 Build 0)  -->
<!DOCTYPE svg PUBLIC "-//W3C//DTD SVG 1.1//EN" "http://www.w3.org/Graphics/SVG/1.1/DTD/svg11.dtd">
<svg version="1.1" id="Layer_1" xmlns="http://www.w3.org/2000/svg" xmlns:xlink="http://www.w3.org/1999/xlink" x="0px" y="0px"
	 width="625.038px" height="358px" viewBox="0 0 625.038 358" enable-background="new 0 0 625.038 358" xml:space="preserve">
<g>
	<g>
		<path fill="#F2F2F2" d="M128.318,166.042l18.743,31.5l-18.743,31.5H90.713l-18.747-31.5l18.747-31.5H128 M129.454,164.042H89.577
			l-19.94,33.5l19.94,33.5h39.877l19.936-33.5L129.454,164.042L129.454,164.042z"/>
	</g>
</g>
<g>
	<g>
		<path fill="#F2F2F2" d="M128.318,239.042l18.743,31.5l-18.743,31.5H90.713l-18.747-31.5l18.747-31.5H128 M129.454,237.042H89.577
			l-19.94,33.5l19.94,33.5h39.877l19.936-33.5L129.454,237.042L129.454,237.042z"/>
	</g>
</g>
<g>
	<g>
		<path fill="#F2F2F2" d="M195.938,129.042l18.742,31.5l-18.742,31.5h-37.606l-18.747-31.5l18.747-31.5H196 M197.073,127.042
			h-39.878l-19.94,33.5l19.94,33.5h39.878l19.935-33.5L197.073,127.042L197.073,127.042z"/>
	</g>
</g>
<g>
	<g>
		<path fill="#F2F2F2" d="M195.938,203.042l18.742,31.001l-18.742,30.999h-37.606l-18.747-30.999l18.747-31.001H196
			 M197.073,201.042h-39.878l-19.94,33.001l19.94,32.999h39.878l19.935-32.999L197.073,201.042L197.073,201.042z"/>
	</g>
</g>
<g>
	<g>
		<path fill="#F2F2F2" d="M195.938,276.042l18.742,31.5l-18.742,31.5h-37.606l-18.747-31.5l18.747-31.5H196 M197.073,274.042
			h-39.878l-19.94,33.5l19.94,33.5h39.878l19.935-33.5L197.073,274.042L197.073,274.042z"/>
	</g>
</g>
<g>
	<g>
		<path fill="#F2F2F2" d="M263.556,166.042l18.742,31.5l-18.742,31.5H225.95l-18.748-31.5l18.748-31.5H264 M264.691,164.042h-39.877
			l-19.941,33.5l19.941,33.5h39.877l19.935-33.5L264.691,164.042L264.691,164.042z"/>
	</g>
</g>
<g>
	<g>
		<path fill="#F2F2F2" d="M263.556,239.042l18.742,31.5l-18.742,31.5H225.95l-18.748-31.5l18.748-31.5H264 M264.691,237.042h-39.877
			l-19.941,33.5l19.941,33.5h39.877l19.935-33.5L264.691,237.042L264.691,237.042z"/>
	</g>
</g>
<g>
	<g>
		<path fill="#F2F2F2" d="M331.174,129.042l18.743,31.5l-18.743,31.5h-37.605l-18.747-31.5l18.747-31.5H331 M332.31,127.042h-39.877
			l-19.94,33.5l19.94,33.5h39.877l19.936-33.5L332.31,127.042L332.31,127.042z"/>
	</g>
</g>
<g>
	<g>
		<path fill="#F2F2F2" d="M331.174,203.042l18.743,31.001l-18.743,30.999h-37.605l-18.747-30.999l18.747-31.001H331 M332.31,201.042
			h-39.877l-19.94,33.001l19.94,32.999h39.877l19.936-32.999L332.31,201.042L332.31,201.042z"/>
	</g>
</g>
<g>
	<g>
		<path fill="#F2F2F2" d="M331.174,276.042l18.743,31.5l-18.743,31.5h-37.605l-18.747-31.5l18.747-31.5H331 M332.31,274.042h-39.877
			l-19.94,33.5l19.94,33.5h39.877l19.936-33.5L332.31,274.042L332.31,274.042z"/>
	</g>
</g>
<g>
	<g>
		<path fill="#F2F2F2" d="M398.792,19.042l18.743,31.5l-18.743,31.5h-37.605l-18.747-31.5l18.747-31.5H399 M399.928,17.042h-39.877
			l-19.94,33.5l19.94,33.5h39.877l19.936-33.5L399.928,17.042L399.928,17.042z"/>
	</g>
</g>
<g>
	<g>
		<path fill="#F2F2F2" d="M398.792,93.042l18.743,31.502l-18.743,31.498h-37.605l-18.747-31.498l18.747-31.502H399 M399.928,91.042
			h-39.877l-19.94,33.502l19.94,33.498h39.877l19.936-33.498L399.928,91.042L399.928,91.042z"/>
	</g>
</g>
<g>
	<g>
		<path fill="#F2F2F2" d="M398.792,166.042l18.743,31.5l-18.743,31.5h-37.605l-18.747-31.5l18.747-31.5H399 M399.928,164.042
			h-39.877l-19.94,33.5l19.94,33.5h39.877l19.936-33.5L399.928,164.042L399.928,164.042z"/>
	</g>
</g>
<g>
	<g>
		<path fill="#F2F2F2" d="M398.792,239.042l18.743,31.5l-18.743,31.5h-37.605l-18.747-31.5l18.747-31.5H399 M399.928,237.042
			h-39.877l-19.94,33.5l19.94,33.5h39.877l19.936-33.5L399.928,237.042L399.928,237.042z"/>
	</g>
</g>
<g>
	<g>
		<path fill="#F2F2F2" d="M466.411,56.042l18.742,31.499l-18.742,31.501h-37.606l-18.747-31.501l18.747-31.499H466 M467.547,54.042
			h-39.878l-19.94,33.499l19.94,33.501h39.878l19.935-33.501L467.547,54.042L467.547,54.042z"/>
	</g>
</g>
<g>
	<g>
		<path fill="#F2F2F2" d="M466.411,129.042l18.742,31.5l-18.742,31.5h-37.606l-18.747-31.5l18.747-31.5H466 M467.547,127.042
			h-39.878l-19.94,33.5l19.94,33.5h39.878l19.935-33.5L467.547,127.042L467.547,127.042z"/>
	</g>
</g>
<g>
	<polygon fill="#ED675A" points="427.669,267.042 407.729,234.043 427.669,201.042 467.547,201.042 487.481,234.043 
		467.547,267.042 	"/>
</g>
<g>
	<g>
		<path fill="#F2F2F2" d="M466.411,276.042l18.742,31.5l-18.742,31.5h-37.606l-18.747-31.5l18.747-31.5H466 M467.547,274.042
			h-39.878l-19.94,33.5l19.94,33.5h39.878l19.935-33.5L467.547,274.042L467.547,274.042z"/>
	</g>
</g>
<g>
	<g>
		<path fill="#F2F2F2" d="M534.029,93.042l18.743,31.502l-18.743,31.498h-37.607l-18.747-31.498l18.747-31.502H534 M535.165,91.042
			h-39.879l-19.94,33.502l19.94,33.498h39.879l19.936-33.498L535.165,91.042L535.165,91.042z"/>
	</g>
</g>
<g>
	<g>
		<path fill="#F2F2F2" d="M534.029,166.042l18.743,31.5l-18.743,31.5h-37.607l-18.747-31.5l18.747-31.5H534 M535.165,164.042
			h-39.879l-19.94,33.5l19.94,33.5h39.879l19.936-33.5L535.165,164.042L535.165,164.042z"/>
	</g>
</g>
<g>
	<g>
		<path fill="#F2F2F2" d="M534.029,239.042l18.743,31.5l-18.743,31.5h-37.607l-18.747-31.5l18.747-31.5H534 M535.165,237.042
			h-39.879l-19.94,33.5l19.94,33.5h39.879l19.936-33.5L535.165,237.042L535.165,237.042z"/>
	</g>
</g>
</svg>
