<?xml version="1.0" encoding="utf-8"?>
<!-- Generator: Adobe Illustrator 16.0.4, SVG Export Plug-In . SVG Version: 6.00 Build 0)  -->
<!DOCTYPE svg PUBLIC "-//W3C//DTD SVG 1.1//EN" "http://www.w3.org/Graphics/SVG/1.1/DTD/svg11.dtd">
<svg version="1.1" id="Layer_1" xmlns="http://www.w3.org/2000/svg" xmlns:xlink="http://www.w3.org/1999/xlink" x="0px" y="0px"
	 width="625.038px" height="358px" viewBox="0 0 625.038 358" enable-background="new 0 0 625.038 358" xml:space="preserve">
<g>
	<g>
		<path fill="#F2F2F2" d="M128.318,166l18.743,31.5L128.318,229H90.713l-18.747-31.5L90.713,166H128 M129.454,164H89.577
			l-19.94,33.5l19.94,33.5h39.877l19.936-33.5L129.454,164L129.454,164z"/>
	</g>
</g>
<g>
	<g>
		<path fill="#F2F2F2" d="M128.318,239l18.743,31.5L128.318,302H90.713l-18.747-31.5L90.713,239H128 M129.454,237H89.577
			l-19.94,33.5l19.94,33.5h39.877l19.936-33.5L129.454,237L129.454,237z"/>
	</g>
</g>
<g>
	<g>
		<path fill="#F2F2F2" d="M195.938,129l18.742,31.5L195.938,192h-37.606l-18.747-31.5l18.747-31.5H196 M197.073,127h-39.878
			l-19.94,33.5l19.94,33.5h39.878l19.935-33.5L197.073,127L197.073,127z"/>
	</g>
</g>
<g>
	<g>
		<path fill="#F2F2F2" d="M195.938,203l18.742,31.001L195.938,265h-37.606l-18.747-30.999L158.331,203H196 M197.073,201h-39.878
			l-19.94,33.001L157.195,267h39.878l19.935-32.999L197.073,201L197.073,201z"/>
	</g>
</g>
<g>
	<g>
		<path fill="#F2F2F2" d="M195.938,276l18.742,31.5L195.938,339h-37.606l-18.747-31.5l18.747-31.5H196 M197.073,274h-39.878
			l-19.94,33.5l19.94,33.5h39.878l19.935-33.5L197.073,274L197.073,274z"/>
	</g>
</g>
<g>
	<g>
		<path fill="#F2F2F2" d="M263.556,166l18.742,31.5L263.556,229H225.95l-18.748-31.5L225.95,166H264 M264.691,164h-39.877
			l-19.941,33.5l19.941,33.5h39.877l19.935-33.5L264.691,164L264.691,164z"/>
	</g>
</g>
<g>
	<g>
		<path fill="#F2F2F2" d="M263.556,239l18.742,31.5L263.556,302H225.95l-18.748-31.5L225.95,239H264 M264.691,237h-39.877
			l-19.941,33.5l19.941,33.5h39.877l19.935-33.5L264.691,237L264.691,237z"/>
	</g>
</g>
<g>
	<g>
		<path fill="#F8CF51" d="M331.174,129l18.743,31.5L331.174,192h-37.605l-18.747-31.5l18.747-31.5H331 M332.31,127h-39.877
			l-19.94,33.5l19.94,33.5h39.877l19.936-33.5L332.31,127L332.31,127z"/>
	</g>
</g>
<g>
	<g>
		<path fill="#F2F2F2" d="M331.174,203l18.743,31.001L331.174,265h-37.605l-18.747-30.999L293.568,203H331 M332.31,201h-39.877
			l-19.94,33.001L292.433,267h39.877l19.936-32.999L332.31,201L332.31,201z"/>
	</g>
</g>
<g>
	<g>
		<path fill="#F2F2F2" d="M331.174,276l18.743,31.5L331.174,339h-37.605l-18.747-31.5l18.747-31.5H331 M332.31,274h-39.877
			l-19.94,33.5l19.94,33.5h39.877l19.936-33.5L332.31,274L332.31,274z"/>
	</g>
</g>
<g>
	<g>
		<path fill="#F2F2F2" d="M398.792,19l18.743,31.5L398.792,82h-37.605l-18.747-31.5L361.187,19H399 M399.928,17h-39.877l-19.94,33.5
			l19.94,33.5h39.877l19.936-33.5L399.928,17L399.928,17z"/>
	</g>
</g>
<g>
	<g>
		<path fill="#F2F2F2" d="M398.792,93l18.743,31.502L398.792,156h-37.605l-18.747-31.498L361.187,93H399 M399.928,91h-39.877
			l-19.94,33.502L360.051,158h39.877l19.936-33.498L399.928,91L399.928,91z"/>
	</g>
</g>
<g>
	<g>
		<path fill="#F2F2F2" d="M398.792,166l18.743,31.5L398.792,229h-37.605l-18.747-31.5l18.747-31.5H399 M399.928,164h-39.877
			l-19.94,33.5l19.94,33.5h39.877l19.936-33.5L399.928,164L399.928,164z"/>
	</g>
</g>
<g>
	<g>
		<path fill="#F2F2F2" d="M398.792,239l18.743,31.5L398.792,302h-37.605l-18.747-31.5l18.747-31.5H399 M399.928,237h-39.877
			l-19.94,33.5l19.94,33.5h39.877l19.936-33.5L399.928,237L399.928,237z"/>
	</g>
</g>
<g>
	<g>
		<path fill="#F2F2F2" d="M466.411,56l18.742,31.499L466.411,119h-37.606l-18.747-31.501L428.805,56H466 M467.547,54h-39.878
			l-19.94,33.499L427.669,121h39.878l19.935-33.501L467.547,54L467.547,54z"/>
	</g>
</g>
<g>
	<g>
		<path fill="#F2F2F2" d="M466.411,129l18.742,31.5L466.411,192h-37.606l-18.747-31.5l18.747-31.5H466 M467.547,127h-39.878
			l-19.94,33.5l19.94,33.5h39.878l19.935-33.5L467.547,127L467.547,127z"/>
	</g>
</g>
<g>
	<g>
		<path fill="#F2F2F2" d="M466.411,203l18.742,31.001L466.411,265h-37.606l-18.747-30.999L428.805,203H466 M467.547,201h-39.878
			l-19.94,33.001L427.669,267h39.878l19.935-32.999L467.547,201L467.547,201z"/>
	</g>
</g>
<g>
	<g>
		<path fill="#F2F2F2" d="M466.411,276l18.742,31.5L466.411,339h-37.606l-18.747-31.5l18.747-31.5H466 M467.547,274h-39.878
			l-19.94,33.5l19.94,33.5h39.878l19.935-33.5L467.547,274L467.547,274z"/>
	</g>
</g>
<g>
	<g>
		<path fill="#F2F2F2" d="M534.029,93l18.743,31.502L534.029,156h-37.607l-18.747-31.498L496.422,93H534 M535.165,91h-39.879
			l-19.94,33.502L495.286,158h39.879l19.936-33.498L535.165,91L535.165,91z"/>
	</g>
</g>
<g>
	<g>
		<path fill="#F2F2F2" d="M534.029,166l18.743,31.5L534.029,229h-37.607l-18.747-31.5l18.747-31.5H534 M535.165,164h-39.879
			l-19.94,33.5l19.94,33.5h39.879l19.936-33.5L535.165,164L535.165,164z"/>
	</g>
</g>
<g>
	<g>
		<path fill="#F2F2F2" d="M534.029,239l18.743,31.5L534.029,302h-37.607l-18.747-31.5l18.747-31.5H534 M535.165,237h-39.879
			l-19.94,33.5l19.94,33.5h39.879l19.936-33.5L535.165,237L535.165,237z"/>
	</g>
</g>
</svg>
