<?xml version="1.0" encoding="UTF-8" standalone="no"?>
<svg width="356px" height="210px" viewBox="0 0 356 210" version="1.1" xmlns="http://www.w3.org/2000/svg" xmlns:xlink="http://www.w3.org/1999/xlink">
    <!-- Generator: Sketch 3.8.3 (29802) - http://www.bohemiancoding.com/sketch -->
    <title>Page 1 Copy 3</title>
    <desc>Created with Sketch.</desc>
    <defs></defs>
    <g id="Welcome" stroke="none" stroke-width="1" fill="none" fill-rule="evenodd">
        <g id="Page-1-Copy-3">
            <path d="M12.9068771,142.592333 L0.000258909091,164.305944 L12.9068771,186.018259 L38.7181716,186.018259 L51.6215535,164.305944 L38.7181716,142.592333 L12.9068771,142.592333 Z M1.50710982,164.305944 L13.6421789,143.889278 L37.7770371,143.889278 L37.9828698,143.889278 L50.1147025,164.305944 L37.9828698,184.722611 L13.6421789,184.722611 L1.50710982,164.305944 Z" id="Fill-1" fill="#F2F2F2"></path>
            <path d="M82.4861709,71.2962963 L56.6748764,71.2962963 L43.7676109,93.0099074 L56.6748764,114.722222 L82.4861709,114.722222 L95.3895527,93.0099074 L82.4861709,71.2962963 Z M81.7508691,72.5925926 L93.8820545,93.0099074 L81.7508691,113.425926 L57.4095309,113.425926 L45.2751091,93.0099074 L57.4095309,72.5925926 L81.7916473,72.5925926 L81.7508691,72.5925926 Z" id="Fill-2" fill="#F2F2F2"></path>
            <polygon id="Fill-3" fill="#F9CF51" points="56.6746175 162.037037 43.767352 140.648148 56.6746175 119.259259 82.485912 119.259259 95.3899411 140.648148 82.485912 162.037037"></polygon>
            <path d="M126.253588,95.2777778 L100.442293,95.2777778 L87.5350276,116.990741 L100.442293,138.703704 L126.253588,138.703704 L139.156969,116.990741 L126.253588,95.2777778 Z M125.518286,96.5740741 L137.649471,116.990741 L125.518286,137.407407 L101.177595,137.407407 L89.0425258,116.990741 L101.177595,96.5740741 L125.806322,96.5740741 L125.518286,96.5740741 Z" id="Fill-4" fill="#F2F2F2"></path>
            <path d="M170.021263,71.2962963 L144.209969,71.2962963 L131.302703,93.0099074 L144.209969,114.722222 L170.021263,114.722222 L182.924645,93.0099074 L170.021263,71.2962963 Z M169.285961,72.5925926 L181.417147,93.0099074 L169.285961,113.425926 L144.944623,113.425926 L132.810201,93.0099074 L144.944623,72.5925926 L169.173336,72.5925926 L169.285961,72.5925926 Z" id="Fill-5" fill="#F2F2F2"></path>
            <path d="M170.021263,119.259259 L144.209969,119.259259 L131.302703,140.648148 L144.209969,162.037037 L170.021263,162.037037 L182.924645,140.648148 L170.021263,119.259259 Z M169.285961,120.555556 L181.417147,140.648148 L169.285961,160.740741 L144.944623,160.740741 L132.810201,140.648148 L144.944623,120.555556 L169.173336,120.555556 L169.285961,120.555556 Z" id="Fill-6" fill="#F2F2F2"></path>
            <path d="M144.20971,166.574333 L131.303092,188.287296 L144.20971,210.000259 L170.021004,210.000259 L182.924386,188.287296 L170.021004,166.574333 L144.20971,166.574333 Z M132.809943,188.287296 L144.945012,167.87063 L169.173724,167.87063 L169.285703,167.87063 L181.417535,188.287296 L169.285703,208.703963 L144.945012,208.703963 L132.809943,188.287296 Z" id="Fill-7" fill="#F2F2F2"></path>
            <path d="M187.976932,0 L175.070314,21.712963 L187.976932,43.4259259 L213.788874,43.4259259 L226.692256,21.712963 L213.788874,0 L187.976932,0 Z M176.577812,21.712963 L188.712234,1.2962963 L213.187558,1.2962963 L213.053572,1.2962963 L225.184758,21.712963 L213.053572,42.1296296 L188.712234,42.1296296 L176.577812,21.712963 Z" id="Fill-8" fill="#F2F2F2"></path>
            <path d="M213.78868,47.962963 L187.977385,47.962963 L175.07012,69.6772222 L187.977385,91.3888889 L213.78868,91.3888889 L226.692062,69.6772222 L213.78868,47.962963 Z M213.053378,49.2592593 L225.184564,69.6772222 L213.053378,90.0925926 L188.71204,90.0925926 L176.577618,69.6772222 L188.71204,49.2592593 L213.188011,49.2592593 L213.053378,49.2592593 Z" id="Fill-9" fill="#F2F2F2"></path>
            <path d="M213.78868,95.2777778 L187.977385,95.2777778 L175.07012,116.990741 L187.977385,138.703704 L213.78868,138.703704 L226.692062,116.990741 L213.78868,95.2777778 Z M213.053378,96.5740741 L225.184564,116.990741 L213.053378,137.407407 L188.71204,137.407407 L176.577618,116.990741 L188.71204,96.5740741 L213.188011,96.5740741 L213.053378,96.5740741 Z" id="Fill-10" fill="#F9CF51"></path>
            <path d="M301.170498,143.240741 L275.359204,143.240741 L262.451938,164.953704 L275.359204,186.666667 L301.170498,186.666667 L314.07388,164.953704 L301.170498,143.240741 Z M300.435196,144.537037 L312.566382,164.953704 L300.435196,185.37037 L276.093858,185.37037 L263.959436,164.953704 L276.093858,144.537037 L300.569829,144.537037 L300.435196,144.537037 Z" id="Fill-11" fill="#F2F2F2"></path>
            <path d="M316.78414,23.9814167 L303.877522,45.6943796 L316.78414,67.4073426 L342.596082,67.4073426 L355.499464,45.6943796 L342.596082,23.9814167 L316.78414,23.9814167 Z M305.38502,45.6943796 L317.519442,25.277713 L341.994766,25.277713 L341.86078,25.277713 L353.991966,45.6943796 L341.86078,66.1110463 L317.519442,66.1110463 L305.38502,45.6943796 Z" id="Fill-12" fill="#F2F2F2"></path>
            <path d="M213.78868,142.592593 L187.977385,142.592593 L175.07012,164.305556 L187.977385,186.018519 L213.78868,186.018519 L226.692062,164.305556 L213.78868,142.592593 Z M213.053378,143.888889 L225.184564,164.305556 L213.053378,184.722222 L188.71204,184.722222 L176.577618,164.305556 L188.71204,143.888889 L213.188011,143.888889 L213.053378,143.888889 Z" id="Fill-14" fill="#F2F2F2"></path>
            <polygon id="Fill-15" fill="#03DBBB" points="231.744802 67.4074074 218.838184 45.6931481 231.744802 23.9814815 257.556097 23.9814815 270.459479 45.6931481 257.556097 67.4074074"></polygon>
            <path d="M257.55642,71.2962963 L231.745126,71.2962963 L218.83786,93.0099074 L231.745126,114.722222 L257.55642,114.722222 L270.459802,93.0099074 L257.55642,71.2962963 Z M256.821119,72.5925926 L268.952304,93.0099074 L256.821119,113.425926 L232.47978,113.425926 L220.345359,93.0099074 L232.47978,72.5925926 L256.555089,72.5925926 L256.821119,72.5925926 Z" id="Fill-16" fill="#F2F2F2"></path>
            <path d="M257.55642,119.259259 L231.745126,119.259259 L218.83786,140.648148 L231.745126,162.037037 L257.55642,162.037037 L270.459802,140.648148 L257.55642,119.259259 Z M256.821119,120.555556 L268.952304,140.648148 L256.821119,160.740741 L232.47978,160.740741 L220.345359,140.648148 L232.47978,120.555556 L256.555089,120.555556 L256.821119,120.555556 Z" id="Fill-17" fill="#F2F2F2"></path>
            <path d="M301.323772,47.962963 L275.511831,47.962963 L262.604565,69.6772222 L275.511831,91.3888889 L301.323772,91.3888889 L314.227801,69.6772222 L301.323772,47.962963 Z M300.588471,49.2592593 L312.720303,69.6772222 L300.588471,90.0925926 L276.246485,90.0925926 L264.111416,69.6772222 L276.246485,49.2592593 L300.5697,49.2592593 L300.588471,49.2592593 Z" id="Fill-18" fill="#F2F2F2"></path>
            <path d="M301.323772,95.2777778 L275.511831,95.2777778 L262.604565,116.990741 L275.511831,138.703704 L301.323772,138.703704 L314.227801,116.990741 L301.323772,95.2777778 Z M300.588471,96.5740741 L312.720303,116.990741 L300.588471,137.407407 L276.246485,137.407407 L264.111416,116.990741 L276.246485,96.5740741 L300.5697,96.5740741 L300.588471,96.5740741 Z" id="Fill-19" fill="#F2F2F2"></path>
        </g>
    </g>
</svg>