<?xml version="1.0" encoding="utf-8"?>
<!-- Generator: Adobe Illustrator 16.0.4, SVG Export Plug-In . SVG Version: 6.00 Build 0)  -->
<!DOCTYPE svg PUBLIC "-//W3C//DTD SVG 1.1//EN" "http://www.w3.org/Graphics/SVG/1.1/DTD/svg11.dtd">
<svg version="1.1" id="Layer_1" xmlns="http://www.w3.org/2000/svg" xmlns:xlink="http://www.w3.org/1999/xlink" x="0px" y="0px"
	 width="625.038px" height="358px" viewBox="0 0 625.038 358" enable-background="new 0 0 625.038 358" xml:space="preserve">
<g>
	<polygon fill="#666666" points="89.577,230.594 69.637,197.094 89.577,163.594 129.454,163.594 149.39,197.094 129.454,230.594 	
		"/>
</g>
<g>
	<polygon fill="#666666" points="89.577,303.594 69.637,270.594 89.577,237.594 129.454,237.594 149.39,270.594 129.454,303.594 	
		"/>
</g>
<g>
	<polygon fill="#666666" points="157.195,194.594 137.255,161.094 157.195,127.594 197.073,127.594 217.008,161.094 
		197.073,194.594 	"/>
</g>
<g>
	<polygon fill="#666666" points="157.195,267.594 137.255,234.095 157.195,200.594 197.073,200.594 217.008,234.095 
		197.073,267.594 	"/>
</g>
<g>
	<polygon fill="#666666" points="157.195,340.594 137.255,307.094 157.195,273.594 197.073,273.594 217.008,307.094 
		197.073,340.594 	"/>
</g>
<g>
	<polygon fill="#F8CF51" points="224.814,230.594 204.873,197.094 224.814,163.594 264.691,163.594 284.626,197.094 
		264.691,230.594 	"/>
</g>
<g>
	<polygon fill="#666666" points="224.814,303.594 204.873,270.594 224.814,237.594 264.691,237.594 284.626,270.594 
		264.691,303.594 	"/>
</g>
<g>
	<polygon fill="#666666" points="292.433,194.594 272.492,161.094 292.433,127.594 332.31,127.594 352.245,161.094 332.31,194.594 	
		"/>
</g>
<g>
	<polygon fill="#666666" points="292.433,267.594 272.492,234.095 292.433,200.594 332.31,200.594 352.245,234.095 332.31,267.594 	
		"/>
</g>
<g>
	<polygon fill="#666666" points="292.433,340.594 272.492,307.094 292.433,273.594 332.31,273.594 352.245,307.094 332.31,340.594 	
		"/>
</g>
<g>
	<polygon fill="#03DBBB" points="360.051,84.594 340.11,51.094 360.051,17.594 399.928,17.594 419.863,51.094 399.928,84.594 	"/>
</g>
<g>
	<polygon fill="#666666" points="360.051,157.594 340.11,124.096 360.051,90.594 399.928,90.594 419.863,124.096 399.928,157.594 	
		"/>
</g>
<g>
	<polygon fill="#666666" points="360.051,230.594 340.11,197.094 360.051,163.594 399.928,163.594 419.863,197.094 399.928,230.594 
			"/>
</g>
<g>
	<polygon fill="#666666" points="360.051,303.594 340.11,270.594 360.051,237.594 399.928,237.594 419.863,270.594 399.928,303.594 
			"/>
</g>
<g>
	<polygon fill="#666666" points="427.669,120.594 407.729,87.593 427.669,54.594 467.547,54.594 487.481,87.593 467.547,120.594 	
		"/>
</g>
<g>
	<polygon fill="#666666" points="427.669,194.594 407.729,161.094 427.669,127.594 467.547,127.594 487.481,161.094 
		467.547,194.594 	"/>
</g>
<g>
	<polygon fill="#666666" points="427.669,267.594 407.729,234.095 427.669,200.594 467.547,200.594 487.481,234.095 
		467.547,267.594 	"/>
</g>
<g>
	<polygon fill="#ED675A" points="427.669,340.594 407.729,307.094 427.669,273.594 467.547,273.594 487.481,307.094 
		467.547,340.594 	"/>
</g>
<g>
	<polygon fill="#666666" points="495.286,157.594 475.346,124.096 495.286,90.594 535.165,90.594 555.101,124.096 535.165,157.594 	
		"/>
</g>
<g>
	<polygon fill="#666666" points="495.286,230.594 475.346,197.094 495.286,163.594 535.165,163.594 555.101,197.094 
		535.165,230.594 	"/>
</g>
<g>
	<polygon fill="#666666" points="495.286,303.594 475.346,270.594 495.286,237.594 535.165,237.594 555.101,270.594 
		535.165,303.594 	"/>
</g>
</svg>
