<?xml version="1.0" encoding="utf-8"?>
<!-- Generator: Adobe Illustrator 16.0.4, SVG Export Plug-In . SVG Version: 6.00 Build 0)  -->
<!DOCTYPE svg PUBLIC "-//W3C//DTD SVG 1.1//EN" "http://www.w3.org/Graphics/SVG/1.1/DTD/svg11.dtd">
<svg version="1.1" id="Layer_1" xmlns="http://www.w3.org/2000/svg" xmlns:xlink="http://www.w3.org/1999/xlink" x="0px" y="0px"
	 width="274px" height="128px" viewBox="0 0 274 128" enable-background="new 0 0 274 128" xml:space="preserve">
<g>
	<path fill-rule="evenodd" clip-rule="evenodd" fill="#B3B3B3" d="M256.112,85.913c0,2.43,0,4.785,0,7.141c0,0.754,0,1.508,0,2.342
		c0.768,0,1.38,0,2.096,0c0.066-1.314,0.123-2.574,0.196-3.832c0.093-1.629,0.198-3.258,0.3-4.887c0-0.254,0-0.51,0-0.764
		C257.788,85.913,256.874,85.913,256.112,85.913z"/>
	<path fill-rule="evenodd" clip-rule="evenodd" fill="#B3B3B3" d="M258.099,96.62c-0.608-0.1-1.442-0.244-1.817,0.07
		c-0.341,0.287-0.467,1.363-0.196,1.705c0.306,0.389,1.154,0.445,1.771,0.455c0.277,0.006,0.564-0.447,0.848-0.693
		c0-0.256,0-0.512,0-0.766C258.504,97.122,258.336,96.657,258.099,96.62z"/>
	<path fill-rule="evenodd" clip-rule="evenodd" fill="#B3B3B3" d="M98.457,89.884c-1.6-0.113-3.115-0.314-4.63-0.301
		c-1.549,0.012-2.969,0.521-3.672,2.064c-0.66,1.449-0.419,2.811,0.783,3.977c-0.969,0.959-1.271,1.943-0.164,2.92
		c-1.799,2.102-1.41,4.051,0.882,4.682c1.657,0.455,3.291,0.326,4.832-0.455c1.524-0.771,2.267-2.246,1.901-3.648
		c-0.346-1.318-1.342-1.93-3.181-1.959c-0.679-0.01-1.362,0.008-2.032-0.08c-0.196-0.025-0.352-0.369-0.525-0.566
		c0.193-0.129,0.371-0.324,0.583-0.373c0.282-0.062,0.591-0.002,0.888-0.008c2.696-0.061,3.977-1.623,3.533-4.385
		C99.021,91.585,98.499,90.665,98.457,89.884z M93.109,99.147c0.265-0.141,0.663-0.027,1.235-0.027
		c0.585,0.023,1.578-0.236,1.768,0.982c0.121,0.777-0.798,1.447-2.017,1.486c-0.455,0.014-1.02,0.025-1.346-0.219
		c-0.375-0.277-0.784-0.873-0.728-1.266C92.077,99.733,92.677,99.376,93.109,99.147z M93.765,94.534
		c-1.02-0.016-1.705-0.691-1.673-1.648c0.033-0.955,0.737-1.574,1.772-1.559c1.055,0.018,1.662,0.629,1.641,1.65
		C95.485,93.966,94.832,94.552,93.765,94.534z"/>
	<path fill-rule="evenodd" clip-rule="evenodd" fill="#B3B3B3" d="M128.777,89.792c-0.57,0.199-1.059,0.631-1.581,0.953
		c-0.146-1.766-1.338-0.705-2.125-0.92c0,4.52,0,8.908,0,13.328c0.775,0,1.467,0,2.236,0c0-1.387,0-2.693,0-4.129
		c0.918-0.059,1.684-0.027,2.416-0.168c2.707-0.521,4.166-3.48,3.34-6.688C132.531,90.104,130.771,89.097,128.777,89.792z
		 M130.402,95.853c-0.28,1.068-1.63,1.703-2.556,1.168c-0.438-0.252-0.496-1.156-0.74-1.801c0.286-1.016,0.414-2.006,0.859-2.824
		c0.232-0.426,1.053-0.795,1.551-0.734c0.416,0.053,1.012,0.74,1.064,1.197C130.693,93.843,130.651,94.897,130.402,95.853z"/>
	<path fill-rule="evenodd" clip-rule="evenodd" fill="#B3B3B3" d="M176.327,89.562c-1.006,0.102-1.873,0.07-2.671,0.293
		c-2.413,0.674-3.658,3.129-3.179,6.172c0.192,1.221,0.664,2.355,1.928,2.785c1.307,0.445,2.6,0.363,3.646-0.729
		c0.077-0.082,0.203-0.115,0.352-0.197c0.083,0.352,0.154,0.658,0.217,0.922c0.689,0,1.308,0,1.953,0c0-4.428,0-8.77,0-13.1
		c-0.789,0-1.482,0-2.246,0C176.327,87.03,176.327,88.253,176.327,89.562z M176.034,95.552c-0.166,0.881-0.759,1.559-1.787,1.469
		c-1.031-0.09-1.303-0.904-1.295-1.742c0.01-0.91-0.002-1.912,0.359-2.709c0.538-1.186,1.693-1.221,3.113-0.852
		C176.299,93.05,176.266,94.319,176.034,95.552z"/>
	<path fill-rule="evenodd" clip-rule="evenodd" fill="#B3B3B3" d="M250.825,89.577c-0.324,0.039-0.527,0.078-0.73,0.086
		c-3.879,0.15-5.874,2.783-5.01,6.615c0.641,2.838,3.299,3.695,5.517,1.779c0.088-0.076,0.212-0.109,0.339-0.174
		c0.07,0.346,0.134,0.654,0.199,0.979c0.658,0,1.249,0,1.992,0c0-4.457,0-8.803,0-13.174c-0.782,0-1.48,0-2.307,0
		C250.825,87.019,250.825,88.276,250.825,89.577z M250.183,96.284c-0.211,0.396-0.983,0.719-1.467,0.676
		c-0.404-0.035-1.031-0.615-1.08-1.014c-0.128-1.021-0.138-2.107,0.088-3.105c0.232-1.037,1.624-1.729,2.529-1.225
		c0.463,0.258,0.553,1.186,0.82,1.838C250.771,94.487,250.62,95.462,250.183,96.284z"/>
	<path fill-rule="evenodd" clip-rule="evenodd" fill="#B3B3B3" d="M166.564,89.667c-1.424-0.314-2.562,0.211-3.612,1.229
		c-0.088-0.42-0.158-0.752-0.222-1.057c-0.722,0-1.346,0-2.049,0c0,3.016,0,5.965,0,8.951c0.813,0,1.546,0,2.364,0
		c0-1.578-0.018-3.061,0.006-4.543c0.018-1.084,0.402-2.008,1.427-2.516c0.864-0.426,1.525-0.053,1.632,0.9
		c0.053,0.461,0.021,0.934,0.021,1.4c0.002,1.596,0.002,3.191,0.002,4.777c0.916,0,1.619,0,2.293,0c0-2.484,0.067-4.891-0.031-7.291
		C168.354,90.503,167.597,89.894,166.564,89.667z"/>
	<path fill-rule="evenodd" clip-rule="evenodd" fill="#B3B3B3" d="M216.893,89.571c-2.657,0.018-4.597,2.072-4.624,4.898
		c-0.029,2.908,1.43,4.512,4.121,4.533c2.836,0.023,4.719-1.891,4.75-4.828C221.171,91.267,219.591,89.554,216.893,89.571z
		 M218.225,96.093c-0.388,0.453-1.128,0.887-1.677,0.846c-0.539-0.041-1.32-0.596-1.483-1.092c-0.275-0.84-0.296-1.836-0.147-2.721
		c0.171-1.021,0.96-1.578,2.047-1.498c1.076,0.078,1.518,0.811,1.67,1.775c0.045,0.293,0.038,0.592,0.074,1.229
		C218.62,94.929,218.595,95.657,218.225,96.093z"/>
	<path fill-rule="evenodd" clip-rule="evenodd" fill="#B3B3B3" d="M120.111,92.632c-0.056,1.008-0.07,2.041-0.325,3.006
		c-0.225,0.85-0.881,1.518-1.887,1.375c-1.092-0.154-0.879-1.088-0.89-1.818c-0.023-1.771-0.008-3.545-0.008-5.334
		c-0.863,0-1.562,0-2.362,0c0,2.363-0.067,4.648,0.025,6.928c0.057,1.379,0.965,2.273,2.326,2.174
		c0.982-0.07,1.932-0.621,2.893-0.967c0.105-0.037,0.191-0.127,0.336-0.227c0.031,0.387,0.057,0.707,0.085,1.064
		c0.72,0,1.383,0,2.108,0c0-3.096,0-6.039,0-8.959c-0.807,0-1.504,0-2.292,0C120.121,90.856,120.16,91.747,120.111,92.632z"/>
	<path fill-rule="evenodd" clip-rule="evenodd" fill="#B3B3B3" d="M241.542,89.919c-2.049-0.877-4.359-0.096-5.37,1.816
		c-1.171,2.219-0.618,5.525,1.11,6.611c0.179,0.111,0.367,0.221,0.566,0.289c1.841,0.625,3.643,0.455,5.505-0.18
		c-0.101-0.648-0.183-1.176-0.265-1.709c-3.785,0.811-5.121,0.287-4.902-1.998c1.755,0,3.524,0,5.35,0
		C243.884,92.269,243.159,90.614,241.542,89.919z M238.108,93.038c0.098-1.08,0.674-1.68,1.688-1.682
		c0.927-0.002,1.423,0.576,1.495,1.682C240.155,93.038,239.159,93.038,238.108,93.038z"/>
	<path fill-rule="evenodd" clip-rule="evenodd" fill="#B3B3B3" d="M105.896,89.653c-1.131,0.055-2.241,0.551-3.312,0.842
		c-0.161-1.566-1.421-0.404-2.229-0.691c0,3.094,0,6.037,0,9.006c0.79,0,1.486,0,2.312,0c0-1.045-0.043-2.014,0.013-2.977
		c0.055-0.961,0.094-1.949,0.352-2.865c0.24-0.854,0.92-1.514,1.899-1.35c1.048,0.178,0.848,1.117,0.855,1.855
		c0.019,1.766,0.007,3.529,0.007,5.348c0.887,0,1.584,0,2.359,0c0-2.383,0.072-4.705-0.027-7.02
		C108.071,90.503,107.198,89.589,105.896,89.653z"/>
	<path fill-rule="evenodd" clip-rule="evenodd" fill="#B3B3B3" d="M156.27,89.767c-1.964-0.602-4.067,0.152-4.937,1.875
		c-0.957,1.898-1.016,3.891,0.081,5.725c0.979,1.639,2.718,1.699,4.419,1.631c0.296-0.012,0.594-0.039,0.887-0.082
		c1.842-0.266,1.939-0.426,1.342-2.172c-3.506,0.879-4.733,0.422-4.912-1.975c1.812,0,3.617,0,5.466,0
		C158.959,92.036,158.108,90.333,156.27,89.767z M153.156,93.034c0.189-1.088,0.743-1.717,1.78-1.678
		c0.932,0.035,1.436,0.611,1.419,1.678C155.243,93.034,154.242,93.034,153.156,93.034z"/>
	<path fill-rule="evenodd" clip-rule="evenodd" fill="#B3B3B3" d="M234.351,96.983c-1.699,0.113-2.069,0.006-2.119-0.85
		c-0.084-1.461-0.022-2.93-0.022-4.432c0.812-0.057,1.47-0.102,2.106-0.146c0-0.656,0-1.178,0-1.725
		c-0.758-0.043-1.414-0.08-2.195-0.123c0-1.16,0-2.191,0-3.143c-2.673-0.281-2.312,1.611-2.3,3.141
		c-0.57,0.059-0.981,0.1-1.442,0.146c0,0.604,0,1.135,0,1.697c0.475,0.057,0.887,0.107,1.465,0.176c0,0.615-0.006,1.123,0.001,1.631
		c0.018,1.316-0.063,2.646,0.09,3.947c0.18,1.52,1.697,2.133,3.808,1.615C235.02,98.606,234.237,97.677,234.351,96.983z"/>
	<path fill-rule="evenodd" clip-rule="evenodd" fill="#B3B3B3" d="M194.829,97.036c-1.734,0.012-2.044-0.074-2.09-0.9
		c-0.082-1.461-0.023-2.928-0.023-4.424c0.783-0.061,1.404-0.111,2.071-0.162c0-0.602,0-1.125,0-1.703
		c-0.728-0.053-1.378-0.102-2.171-0.16c0-1.148,0-2.174,0-3.119c-2.649-0.264-2.389,1.568-2.346,3.121
		c-0.563,0.072-0.971,0.127-1.396,0.182c0,0.607,0,1.141,0,1.662c0.518,0.084,0.966,0.156,1.471,0.238
		c0,0.697-0.006,1.332,0.002,1.967c0.016,1.188-0.067,2.389,0.084,3.561c0.197,1.516,1.528,2.057,3.676,1.643
		C195.437,98.683,194.685,97.722,194.829,97.036z"/>
	<path fill-rule="evenodd" clip-rule="evenodd" fill="#B3B3B3" d="M81.817,93.722c-0.502-0.227-1.047-0.389-1.488-0.699
		c-0.258-0.18-0.525-0.635-0.469-0.895c0.059-0.268,0.49-0.588,0.794-0.633c0.653-0.096,1.331-0.029,2.047-0.029
		c0.058-0.531,0.111-1.027,0.175-1.613c-1.571-0.449-2.935-0.379-4.214,0.35c-0.971,0.553-1.413,1.424-1.344,2.547
		c0.065,1.055,0.661,1.707,1.589,2.104c0.389,0.168,0.85,0.236,1.162,0.492c0.345,0.281,0.557,0.727,0.826,1.102
		c-0.406,0.238-0.791,0.619-1.223,0.682c-0.647,0.09-1.326-0.043-2.061-0.086c0,0.594,0,1.168,0,2.123
		c1.488-0.232,2.918-0.297,4.24-0.711c1.063-0.332,1.612-1.318,1.584-2.514C83.409,94.819,82.774,94.155,81.817,93.722z"/>
	<path fill-rule="evenodd" clip-rule="evenodd" fill="#B3B3B3" d="M147.878,93.778c-0.382-0.18-0.832-0.262-1.154-0.514
		c-0.389-0.307-0.675-0.744-1.006-1.125c0.485-0.234,0.95-0.559,1.463-0.676c0.461-0.107,0.975,0.016,1.488,0.037
		c0-0.639,0-1.172,0-2.041c-1.341,0.199-2.605,0.246-3.776,0.602c-1.097,0.33-1.659,1.314-1.671,2.469
		c-0.013,1.195,0.664,1.965,1.764,2.383c0.396,0.15,0.838,0.242,1.165,0.486c0.302,0.227,0.734,0.73,0.654,0.918
		c-0.15,0.352-0.601,0.73-0.977,0.795c-0.729,0.123-1.495,0.035-2.33,0.035c0,0.502,0,1.035,0,1.713
		c1.581,0.213,3.085,0.344,4.495-0.475c0.924-0.535,1.372-1.361,1.357-2.42C149.337,94.927,148.797,94.216,147.878,93.778z"/>
	<path fill-rule="evenodd" clip-rule="evenodd" fill="#B3B3B3" d="M209.329,93.688c-0.466-0.203-0.974-0.348-1.385-0.631
		c-0.267-0.186-0.609-0.656-0.534-0.852c0.12-0.314,0.533-0.658,0.869-0.717c0.643-0.113,1.318-0.033,1.995-0.033
		c0-0.592,0-1.09,0-2.057c-1.455,0.266-2.766,0.348-3.955,0.771c-1.082,0.385-1.51,1.404-1.443,2.594
		c0.062,1.082,0.704,1.684,1.604,2.096c0.424,0.195,0.914,0.281,1.284,0.543c0.304,0.215,0.724,0.721,0.644,0.916
		c-0.143,0.35-0.592,0.73-0.965,0.795c-0.725,0.123-1.485,0.035-2.303,0.035c0,0.535,0,1.104,0,2.055
		c1.529-0.262,2.951-0.377,4.289-0.771c1.061-0.314,1.553-1.297,1.561-2.406C210.998,94.88,210.356,94.132,209.329,93.688z"/>
	<path fill-rule="evenodd" clip-rule="evenodd" fill="#B3B3B3" d="M223.07,89.79c0,3.133,0,6.08,0,8.994c0.796,0,1.489,0,2.254,0
		c0-1.422-0.053-2.738,0.013-4.049c0.101-2.049,0.525-2.537,2.485-3.088c0-0.654,0-1.318,0-2.334
		c-0.967,0.502-1.745,0.908-2.52,1.311C225.137,89.132,223.966,89.944,223.07,89.79z"/>
	<path fill-rule="evenodd" clip-rule="evenodd" fill="#B3B3B3" d="M185.183,98.817c0.773,0,1.471,0,2.237,0c0-2.984,0-5.896,0-8.969
		c-0.778,0-1.474,0-2.237,0C185.183,92.868,185.183,95.817,185.183,98.817z"/>
	<path fill-rule="evenodd" clip-rule="evenodd" fill="#B3B3B3" d="M85.559,98.86c0.748,0,1.378,0,2.114,0c0-3.09,0-6.059,0-9.008
		c-0.774,0-1.436,0-2.114,0C85.559,92.897,85.559,95.864,85.559,98.86z"/>
	<path fill-rule="evenodd" clip-rule="evenodd" fill="#B3B3B3" d="M197.368,96.188c-0.805,0.254-1.273,1.047-0.852,1.695
		c0.854,1.312,0.352,2.277-0.521,3.266c0.357,0.307,0.638,0.545,1.107,0.949c0.656-0.926,1.34-1.652,1.73-2.514
		c0.312-0.689,0.445-1.564,0.338-2.311C199.042,96.382,198.313,95.892,197.368,96.188z"/>
	<path fill-rule="evenodd" clip-rule="evenodd" fill="#B3B3B3" d="M135.779,96.231c-0.472,0.236-1.042,1.367-0.87,1.617
		c0.898,1.311,0.334,2.291-0.531,3.295c0.355,0.305,0.635,0.545,1.02,0.877c0.498-0.578,1.125-1.045,1.381-1.664
		c0.4-0.975,0.75-2.053,0.746-3.086C137.521,96.374,136.63,95.806,135.779,96.231z"/>
	<path fill-rule="evenodd" clip-rule="evenodd" fill="#B3B3B3" d="M186.672,85.638c-0.197-0.012-0.395-0.023-0.592-0.035
		c-0.425,0.52-1.093,0.986-1.216,1.57c-0.176,0.83,0.463,1.441,1.328,1.49c0.869,0.051,1.559-0.518,1.503-1.336
		C187.654,86.743,187.034,86.2,186.672,85.638z"/>
	<path fill-rule="evenodd" clip-rule="evenodd" fill="#B3B3B3" d="M86.863,85.62c-0.193,0-0.386,0.002-0.579,0.004
		c-0.381,0.514-0.98,0.984-1.09,1.551c-0.169,0.867,0.448,1.467,1.336,1.484c0.867,0.018,1.578-0.533,1.461-1.387
		C87.911,86.681,87.26,86.167,86.863,85.62z"/>
	<path fill-rule="evenodd" clip-rule="evenodd" fill="#B3B3B3" d="M70.762,102.144c0.483-1.623-0.591-1.633-1.653-1.699
		c-0.424-0.027-0.846-0.082-1.27-0.105c-2.669-0.139-5.341-0.408-8.006-0.359c-1.85,0.035-3.668,0.41-5.506-0.23
		c-0.545-0.189-1.25,0.047-1.877,0.129c-0.78,0.102-1.556,0.348-2.332,0.344c-1.482-0.006-2.966-0.209-4.449-0.217
		c-2.945-0.012-5.891,0.055-8.836,0.088c0.001,0.125,0.002,0.248,0.004,0.373c3.848,0.348,7.739-0.357,11.571,0.252
		c-4.987,0.566-9.987,0.877-14.936,1.566c-3.551,0.496-7.037,1.475-10.535,2.307c-0.495,0.119-0.897,0.629-1.342,0.957
		c-2.443-0.195-5.044-0.404-7.644-0.613c-0.018,0.227-0.036,0.451-0.054,0.676c4.205,0.271,8.41,0.543,12.614,0.814
		c-1.531,0.105-3.058,0.209-4.584,0.314c0.002,0.115,0.005,0.232,0.007,0.348c0.537,0.066,1.073,0.191,1.61,0.193
		c2.546,0.012,5.119,0.221,7.633-0.07c5.84-0.674,11.67-0.252,17.505-0.189c2.099,0.021,4.2-0.004,6.299,0.043
		c1.468,0.033,3.034-0.15,4.38,0.295c3.135,1.039,6.201,0.307,9.303,0.148c-1.795-0.305-3.598-0.482-5.396-0.689
		c-1.835-0.215-3.667-0.457-5.609-0.701c1.844-1.277,1.837-1.174,3.531-1.078c1.997,0.115,4.007,0.027,6.01,0.027
		c0.002-0.061,0.004-0.119,0.006-0.178c-0.49-0.074-0.981-0.148-1.472-0.225c0.009-0.096,0.019-0.193,0.026-0.291
		c2.843,0,5.686,0,8.527,0c0-0.066,0-0.131,0-0.195c-1.008-0.393-2.033-0.746-3.012-1.201
		C71.02,102.854,70.697,102.36,70.762,102.144z"/>
	<path fill-rule="evenodd" clip-rule="evenodd" fill="#B3B3B3" d="M20.343,76.612c0.217,0.018,0.491,0.158,0.617,0.332
		c1.507,2.074,3.754,2.943,6.014,3.861c1.287,0.523,2.454,1.34,3.676,2.025c-0.056,0.102-0.11,0.205-0.165,0.307
		c-0.336-0.139-0.668-0.287-1.008-0.414c-1.678-0.629-4.26-0.088-5.322,1.109c-1.292,1.455-1.298,4.643-0.013,6.473
		c1.103,1.57,2.633,1.777,5.027,0.844c0.603-0.236,1.438-0.305,2.021-0.076c1.091,0.434,1.935,0.316,2.808-0.428
		c1.78-1.512,3.591-2.988,5.404-4.461c0.32-0.26,0.695-0.562,1.078-0.619c2.966-0.438,5.703,1.285,6.65,4.107
		c0.227,0.676,0.383,1.441,1.393,1.342c1.031-0.102,1.643-0.604,1.749-1.666c0.035-0.344,0.112-0.684,0.122-0.744
		c0.684,0.744,1.316,2.053,2.115,2.162c1.328,0.182,2.006-1.09,2.176-2.504c0.645,0.705,1.166,1.662,2.129,0.857
		c0.625-0.521,1.037-1.299,1.607-2.043c0.93,1.441,2.096,2.883,2.852,4.514c0.914,1.977,1.489,4.111,2.197,6.182
		c0.32,0.936,0.977,1.199,1.786,0.76c2.04-1.105,4.094-2.205,6.031-3.475c1.134-0.742,1.239-1.834,0.319-2.857
		c-1.271-1.416-2.721-2.674-4.096-3.996c-0.413-0.398-0.959-0.715-1.23-1.191c-1.691-2.977-3.594-5.77-6.404-7.818
		c-0.684-0.5-0.709-1.035-0.342-1.734c0.867-1.654,1.204-3.422,1.103-5.291c-0.085-1.568-0.081-3.141-0.137-4.711
		c-0.034-0.982-0.103-1.965-0.156-2.949c0.824,1.086,1.331,2.275,1.968,3.389c1.284,2.246,3.63,2.4,5.271,0.398
		c0.297-0.359,0.573-0.738,0.873-1.094c1.578-1.877,1.433-2.805-0.666-4.174c-0.78-0.51-1.564-1.016-2.348-1.523
		c2.425-0.143,3.275-2.203,4.673-3.455c0.747,0.619,1.355,1.34,2.132,1.705c0.734,0.344,1.811,0.646,2.427,0.342
		c0.531-0.262,0.977-1.477,0.846-2.15c-0.366-1.891-1.038-3.727-1.614-5.576c-0.148-0.48-0.6-0.959-0.545-1.395
		c0.35-2.807-0.926-5.324-1.279-7.992c-0.42-3.154-0.499-6.354-0.726-9.531c1.85,1.883,3.423,2.176,4.896,0.832
		c1.305-1.191,1.651-3.311,0.848-5.195c-0.586-1.377-1.701-1.971-3.085-1.395c-0.919,0.383-1.701,1.098-2.594,1.695
		c0-2.352,0.022-4.768-0.005-7.182c-0.055-4.773-2.914-8.15-7.623-9.045c-1.287-0.244-2.537-0.455-3.369-1.723
		c-0.301-0.459-1.108-0.584-1.686-0.859c-0.121,0.619-0.24,1.24-0.363,1.859c-0.016,0.078-0.045,0.154-0.103,0.344
		c-0.803,0.158-1.656,0.328-2.613,0.518c-0.108-0.535-0.153-0.951-0.28-1.342c-0.352-1.084-0.645-2.201-1.152-3.211
		c-0.216-0.428-0.911-0.85-1.383-0.844c-0.388,0.006-1.002,0.588-1.109,1.016c-0.398,1.594-0.636,3.227-0.919,4.85
		c-0.064,0.367-0.071,0.744-0.121,1.316c-2.598-2.91-2.654-3.012-3.997-3.348c-1.191-0.297-2.401-0.562-3.62-0.695
		c-3.152-0.342-6.113,1.145-7.443,3.643c-0.977,1.834-0.433,3.359,1.58,3.814c1.064,0.242,2.274,0.131,3.36-0.096
		c1.062-0.221,2.048-0.801,3.073-1.203c1.293-0.508,3.662,0.172,4.123,1.168c0.54,1.166-0.227,3.441-1.41,4.166
		c-2.512,1.537-4.814,3.307-6.751,5.564c-3.569,4.16-7.166,8.268-9.754,13.176c-3.377,6.402-4.962,13.324-6.363,20.326
		c-0.601,2.996-1.335,5.973-0.771,9.068c0.125,0.691,0.18,1.398,0.268,2.098c-0.507-1.072-0.818-2.184-1.318-3.199
		c-1.205-2.443-3.809-3.564-6.426-2.781c-0.361,0.107-0.863,0.645-0.848,0.959c0.082,1.52,0.161,3.072,0.535,4.537
		C15.594,74.884,17.625,76.39,20.343,76.612z M72.445,53.894c0.335,1.102,0.627,2.066,0.973,3.203
		C71.222,56.222,71.11,55.831,72.445,53.894z"/>
	<path fill-rule="evenodd" clip-rule="evenodd" fill="#B3B3B3" d="M118.669,80.685c0.405-2.422,1.113-4.836,1.171-7.266
		c0.163-6.709,0.154-13.426,0.017-20.135c-0.078-3.855-0.452-7.711-1.887-11.377c-0.395-1.01-0.892-1.506-2.033-1.391
		c-1.053,0.107-2.141,0.145-3.182-0.004c-1.854-0.264-3.125,0.564-4.365,1.797c-2.941,2.926-4.796,6.57-6.881,10.068
		c-0.241,0.406-0.503,0.799-0.844,1.338c-0.417-0.775-0.694-1.348-1.022-1.889c-1.866-3.078-3.687-6.186-5.643-9.205
		c-0.991-1.529-2.417-2.451-4.419-2.105c-0.697,0.121-1.439-0.031-2.161-0.025c-3.231,0.018-4.279,0.852-4.716,4.074
		c-0.329,2.436-0.49,4.896-0.643,7.354c-0.498,7.977-0.63,15.955,0.196,23.918c0.204,1.965,0.632,3.906,0.944,5.787
		c1.593,0.072,2.941,0.17,4.291,0.186c0.973,0.012,1.949-0.055,2.919-0.141c0.849-0.076,1.224-0.426,1.026-1.426
		c-0.803-4.082-1.564-8.174-2.24-12.279c-0.762-4.625-1.107-9.283-0.396-13.949c0.134-0.877,0.602-1.705,0.992-2.762
		c1.785,1.375,2.764,2.877,3.34,4.564c1.108,3.25,2.023,6.562,3.094,9.824c0.592,1.805,1.174,3.643,2.055,5.309
		c1.029,1.951,3.759,2.293,4.639-0.363c0.679-2.045,1.279-4.137,1.683-6.25c0.657-3.443,1.531-6.807,3.276-9.855
		c0.654-1.145,1.709-2.062,2.582-3.082c0.18,0.074,0.359,0.146,0.538,0.221c0.255,2.092,0.622,4.178,0.743,6.277
		c0.338,5.898-0.657,11.684-1.635,17.465c-0.352,2.076-0.68,4.158-1.047,6.406c2.844,0,5.471-0.039,8.096,0.023
		C118.036,81.812,118.523,81.556,118.669,80.685z"/>
	<path fill-rule="evenodd" clip-rule="evenodd" fill="#B3B3B3" d="M153.33,81.591c2.604,0,5.022,0,7.546,0
		c-0.369-2.164-0.826-4.074-0.986-6.008c-0.156-1.881-0.16-3.805,0.084-5.67c0.089-0.674,1.022-1.611,1.695-1.73
		c0.753-0.133,1.729,0.4,2.45,0.881c0.474,0.316,0.761,1.02,0.965,1.607c0.401,1.158,0.783,2.34,1.003,3.541
		c0.41,2.254,0.661,4.537,1.072,6.791c0.09,0.496,0.549,1.303,0.867,1.316c2.523,0.109,5.056,0.061,7.453,0.061
		c-0.471-7.404-2.014-14.232-8.354-18.926c0.445-0.617,0.839-1.109,1.173-1.639c0.995-1.578,2.063-3.119,2.925-4.768
		c1.452-2.785,1.599-5.783,0.971-8.811c-0.225-1.082-0.602-2.174-2.059-2.203c-1.93-0.041-4.498,2.414-4.52,4.32
		c-0.039,3.473-0.727,6.775-2.916,9.564c-0.854,1.088-1.973,1.965-3.221,3.18c-1.038-8.213,0.529-15.828,1.149-23.715
		c-1.785,0-3.344,0-4.903,0c-2.023,0.002-2.053,0.014-2.32,1.975c-1.576,11.574-1.766,23.182-0.762,34.811
		C152.802,78.015,153.105,79.849,153.33,81.591z"/>
	<path fill-rule="evenodd" clip-rule="evenodd" fill="#B3B3B3" d="M144.193,82.644c1.122,0.092,1.844-0.492,2.125-1.447
		c0.488-1.654,1.093-3.348,1.15-5.043c0.197-5.77,0.318-11.551,0.179-17.32c-0.064-2.637-0.773-5.264-1.272-7.879
		c-0.073-0.383-0.594-0.953-0.931-0.971c-1.736-0.088-3.481-0.031-5.223-0.008c-0.718,0.01-1.094,0.303-0.942,1.115
		c0.188,1,0.271,2.02,0.438,3.025c0.767,4.613,1.472,9.234,1.114,13.934c-0.18,2.346-0.586,4.662-2.095,6.576
		c-1.851,2.346-4.759,2.029-6.077-0.639c-0.316-0.641-0.67-1.338-0.713-2.025c-0.19-3.125-0.575-6.279-0.326-9.377
		c0.33-4.123,1.182-8.205,1.834-12.459c-0.429-0.053-1.001-0.17-1.576-0.182c-1.358-0.029-2.723,0.049-4.078-0.029
		c-0.966-0.059-1.312,0.311-1.515,1.232c-1.327,6.043-1.983,12.146-1.804,18.334c0.086,2.986,0.467,5.928,1.62,8.715
		c1.643,3.965,4.938,5.381,8.904,3.773c1.253-0.508,2.444-1.182,3.632-1.838c0.717-0.396,1.225-0.33,1.16,0.547
		c-0.104,1.418,0.805,1.738,1.859,1.875C142.491,82.663,143.351,82.575,144.193,82.644z"/>
	<path fill-rule="evenodd" clip-rule="evenodd" fill="#B3B3B3" d="M198.919,50.144c-2.17-0.346-4.35-0.418-6.65,0.115
		c0.268,1.912,0.485,3.719,0.775,5.514c0.76,4.705,1.482,9.422,0.584,14.174c-0.286,1.512-0.872,3.008-1.567,4.389
		c-0.681,1.35-1.993,1.928-3.529,1.814c-1.534-0.111-2.449-1.062-3.038-2.381c-0.224-0.5-0.396-1.031-0.524-1.564
		c-0.815-3.395-0.745-6.846-0.321-10.258c0.438-3.533,1.161-7.031,1.82-10.535c0.199-1.062-0.1-1.502-1.183-1.48
		c-1.444,0.029-2.892,0.053-4.333-0.012c-1.049-0.049-1.535,0.361-1.721,1.395c-1.098,6.113-1.887,12.252-1.693,18.482
		c0.091,2.943,0.455,5.846,1.656,8.574c1.576,3.574,4.472,4.953,8.204,3.799c1.366-0.424,2.646-1.125,3.958-1.717
		c0.377-0.168,0.727-0.396,1.204-0.66c0.123,0.432,0.306,0.752,0.286,1.059c-0.07,1.033,0.439,1.494,1.4,1.553
		c1.133,0.07,2.27,0.158,3.404,0.152c0.904-0.004,1.387-0.516,1.659-1.426c1.181-3.943,1.583-7.99,1.7-12.07
		c0.174-6.043-0.202-12.051-1.469-17.979C199.466,50.728,199.176,50.185,198.919,50.144z"/>
	<path fill-rule="evenodd" clip-rule="evenodd" fill="#B3B3B3" d="M246.001,82.403c0.809-1.668,1.823-3.322,2.199-5.098
		c0.948-4.482,1.701-9.016,2.316-13.557c0.436-3.227,0.658-6.498,0.71-9.754c0.038-2.359-0.155-2.367-2.429-2.875
		c-0.621-0.139-1.247-0.266-1.877-0.354c-2.947-0.412-2.947-0.406-3.057,2.547c-0.021,0.549-0.092,1.102-0.062,1.648
		c0.235,4.213,0.195,8.414-0.683,12.561c-0.503,2.375-1.121,4.725-2.754,6.637c-1.083,1.268-2.483,1.812-4.108,1.467
		c-1.51-0.32-2.174-1.521-2.549-2.902c-0.133-0.488-0.236-0.992-0.29-1.496c-0.429-4.061,0.497-7.943,1.672-11.768
		c0.993-3.238,2.149-6.426,3.341-9.957c-1.958-0.303-3.721-0.514-5.453-0.867c-0.994-0.203-1.542,0.137-1.854,1.01
		c-0.971,2.713-2.116,5.379-2.852,8.156c-1.487,5.605-2.401,11.307-1.712,17.143c0.669,5.662,5.257,8.172,10.284,5.68
		c0.593-0.295,1.276-0.43,1.935-0.562c0.693-0.143,1.104,0.223,1.003,0.912c-0.19,1.285,0.507,1.746,1.6,1.941
		c0.834,0.146,1.664,0.318,2.493,0.49C244.839,83.606,245.599,83.233,246.001,82.403z"/>
	<path fill-rule="evenodd" clip-rule="evenodd" fill="#B3B3B3" d="M221.77,49.714c-1.814-1.014-3.8-0.617-5.827,1.061
		c-0.676,0.557-1.449,1.051-2.26,1.363c-0.297,0.115-1.18-0.348-1.197-0.592c-0.119-1.629-1.112-1.732-2.382-1.627
		c-0.929,0.078-1.869,0.035-2.804,0.012c-0.998-0.023-1.539,0.246-1.561,1.434c-0.121,6.705-0.457,13.408-0.433,20.113
		c0.011,3.117,0.648,6.234,1.062,9.344c0.046,0.344,0.481,0.895,0.752,0.902c2.19,0.074,4.384,0.041,6.731,0.041
		c-0.266-1.598-0.486-2.842-0.679-4.09c-0.765-4.955-1.53-9.912-0.906-14.951c0.226-1.828,0.608-3.596,1.753-5.115
		c1.271-1.684,4.401-1.867,5.186,0.746c0.154,0.51,0.424,0.982,0.628,1.447c2.439-0.488,3.851-2.002,4.224-4.426
		C224.436,52.925,223.536,50.702,221.77,49.714z"/>
	<path fill-rule="evenodd" clip-rule="evenodd" fill="#B3B3B3" d="M234.694,43.167c1.719,0.252,2.838-0.545,3.371-2.521
		c0.23-0.852,0.393-1.752,0.387-2.631c-0.011-1.691-1.068-2.629-2.772-2.621c-2.096,0.008-3.561,1.838-3.548,4.43
		C232.14,41.868,232.939,42.909,234.694,43.167z"/>
	<path fill-rule="evenodd" clip-rule="evenodd" fill="#B3B3B3" d="M196.11,44.056c1.1-0.02,1.735-0.768,2.157-1.717
		c0.651-1.465,0.683-2.965,0.165-4.459c-0.464-1.342-1.438-1.926-2.846-1.814c-1.761,0.141-2.721,1.477-2.879,3.832
		c0.258,0.883,0.412,1.816,0.801,2.637C194.001,43.567,194.979,44.075,196.11,44.056z"/>
	<path fill-rule="evenodd" clip-rule="evenodd" fill="#B3B3B3" d="M189.704,42.185c1.148-0.041,1.551-0.631,1.53-2.248
		c-0.021-1.652-0.581-2.504-1.665-2.529c-1.037-0.027-1.858,1.119-1.855,2.586C187.716,41.454,188.421,42.231,189.704,42.185z"/>
	<path fill-rule="evenodd" clip-rule="evenodd" fill="#B3B3B3" d="M241.536,42.03c1.232,0.012,1.861-0.887,1.916-2.74
		c0.037-1.246-0.543-2.029-1.522-2.057c-1.015-0.029-2.038,1.316-2.107,2.771C239.763,41.231,240.431,42.022,241.536,42.03z"/>
	<path fill-rule="evenodd" clip-rule="evenodd" fill="#B3B3B3" d="M245.673,43.22c1.102,0.027,1.809-1.012,1.844-2.793
		c0.16-0.967-0.44-1.393-1.358-1.463c-0.991-0.078-1.891,1.062-1.951,2.396C244.16,42.407,244.784,43.198,245.673,43.22z"/>
	<path fill-rule="evenodd" clip-rule="evenodd" fill="#B3B3B3" d="M185.445,42.989c1.067-0.096,1.388-0.832,1.349-1.799
		c-0.018-1.428-0.627-2.312-1.597-2.322c-1.114-0.012-1.78,0.635-1.758,1.709C183.465,41.806,184.483,43.075,185.445,42.989z"/>
	<path fill-rule="evenodd" clip-rule="evenodd" fill="#B3B3B3" d="M249.341,44.747c0.865,0.252,2.281-1.184,2.165-2.195
		c-0.065-0.562-0.632-1.066-0.837-1.385c-1.41-0.033-2.789,1.217-2.617,2.215C248.144,43.913,248.805,44.593,249.341,44.747z"/>
	<path fill-rule="evenodd" clip-rule="evenodd" fill="#B3B3B3" d="M181.469,44.151c0.758,0.107,1.282-0.182,1.294-1.145
		c0.014-1.205-0.876-2.508-1.734-2.523c-1.057-0.018-1.398,0.578-1.388,1.527C179.656,43.407,180.237,44.14,181.469,44.151z"/>
	<path fill-rule="evenodd" clip-rule="evenodd" fill="#B3B3B3" d="M178.563,46.481c0.526-0.207,1.109-0.859,1.217-1.402
		c0.166-0.838-1.162-2.129-1.946-1.973c-0.484,0.096-0.892,0.584-1.134,0.754C176.748,45.419,177.815,46.776,178.563,46.481z"/>
	<path fill-rule="evenodd" clip-rule="evenodd" fill="#B3B3B3" d="M250.897,45.964c0.092,0.486,0.672,1.094,1.156,1.244
		c0.826,0.258,2.07-1.121,2.11-2.486c-0.299-0.17-0.72-0.576-1.191-0.646C251.967,43.925,250.72,45.022,250.897,45.964z"/>
	<path fill-rule="evenodd" clip-rule="evenodd" fill="#B3B3B3" d="M72.134,101.677c0,0.1,0,0.197,0,0.297c1.499,0,2.997,0,4.496,0
		c0-0.1,0-0.197,0-0.297C75.131,101.677,73.633,101.677,72.134,101.677z"/>
</g>
</svg>
