<?xml version="1.0" encoding="utf-8"?>
<!-- Generator: Adobe Illustrator 16.0.4, SVG Export Plug-In . SVG Version: 6.00 Build 0)  -->
<!DOCTYPE svg PUBLIC "-//W3C//DTD SVG 1.1//EN" "http://www.w3.org/Graphics/SVG/1.1/DTD/svg11.dtd">
<svg version="1.1" id="Layer_1" xmlns="http://www.w3.org/2000/svg" xmlns:xlink="http://www.w3.org/1999/xlink" x="0px" y="0px"
	 width="406px" height="97.457px" viewBox="0 0 406 97.457" enable-background="new 0 0 406 97.457" xml:space="preserve">
<g>
	<path fill="#B3B3B3" d="M39.144,32.436c4.08,0,7.478-2.963,8.343-6.923c0.851,0.315,1.754,0.517,2.707,0.517
		c4.468,0,8.088-3.754,8.088-8.39s-3.62-8.391-8.088-8.391c-3.696,0-6.775,2.585-7.742,6.096c-1.019-0.438-2.135-0.688-3.308-0.688
		c-4.731,0-8.568,3.979-8.568,8.89S34.412,32.436,39.144,32.436z"/>
	<path fill="#B3B3B3" d="M82.468,50.16c0,0-19.221-0.505-12.171-14.6C77.344,21.464,83.27,14.656,83.27,14.656
		s-23.1,11.609-29.438,26.145c-14.954-3.94-40.073,12.213-40.073,12.213s25.385-7.523,32.193,0.802
		c8.532,10.441-12.173,22.584,2.723,29.468c14.894,6.889,25.787-3.364,25.787-3.364c-19.38,4.328-17.461-4.803-15.218-9.286
		c0.9-1.799,3.188-4.681,4.763-8.218c15.201,3.716,36.855-7.347,17.98,23.25C81.987,85.665,122.347,55.152,82.468,50.16z"/>
	<path fill="#B3B3B3" d="M161.589,23.538c-6.613-5.325-38.438-2.076-38.438-2.076v60.54h12.817V58.786h7.035l12.492,23.216h13.78
		l-12.492-24.658C174.714,47.734,166.622,27.614,161.589,23.538z M148.135,48.369h-12.167V30.746h14.319
		c0,0,6.092,3.208,6.092,9.378C156.379,46.293,148.135,48.369,148.135,48.369z"/>
	<rect x="222.129" y="35.558" fill="#B3B3B3" width="11.531" height="46.444"/>
	<path fill="#B3B3B3" d="M264.41,34.555c-19.219,0-20.5,5.613-20.5,5.613v41.834h11.531V44.886
		c15.193-4.068,16.566,2.979,16.658,4.997v32.119h11.529V42.606h-0.916C281.105,38.951,276.67,34.555,264.41,34.555z"/>
	<path fill="#B3B3B3" d="M392.742,42.606c-1.609-3.655-6.045-8.052-18.301-8.052c-19.221,0-20.501,5.613-20.501,5.613v41.834h11.531
		V44.886c15.191-4.068,16.567,2.979,16.659,4.997v32.119h11.529V42.606H392.742z"/>
	<path fill="#B3B3B3" d="M200.508,34.186c-8.765-1.786-23.775,1.366-23.775,1.366v9.34c0,0,11.281-1.096,18.72-0.597
		c7.457,0.48,6.495,6.956,6.495,6.956s-4.4-0.037-11.163,0.961c-9.746,1.442-16.337,5.287-16.337,15.146
		c0,9.838,5.032,15.375,19.392,15.375c13.337,0,18.448-4.459,18.448-4.459s0.963-0.48,0.963-19.912
		C213.25,38.951,209.269,35.99,200.508,34.186z M201.947,72.507c0,0-0.729,1.44-7.092,1.44c-6.361,0-10.319-2.995-10.319-6.84
		s5.766-7.398,9.955-8.321c4.209-0.924,7.456,0,7.456,0V72.507z"/>
	<path fill="#B3B3B3" d="M227.894,17.139c-3.582,0-6.485,2.902-6.485,6.486c0,3.583,2.903,6.486,6.485,6.486
		c3.585,0,6.487-2.903,6.487-6.486C234.381,20.041,231.479,17.139,227.894,17.139z"/>
	<rect x="334.081" y="35.558" fill="#B3B3B3" width="11.531" height="46.444"/>
	<circle fill="#B3B3B3" cx="339.847" cy="23.625" r="6.486"/>
	<path fill="#B3B3B3" d="M296.763,23.625c-3.843,2.562-4.003,6.486-4.003,6.486v51.891h11.531V55.257h20.184v-9.45h-20.184V35.558
		c0-5.22,5.966-5.441,6.788-5.446h14.674v-9.449h-21.462C304.291,20.662,300.607,21.061,296.763,23.625z"/>
</g>
</svg>
