<?xml version="1.0" encoding="utf-8"?>
<!-- Generator: Adobe Illustrator 16.0.4, SVG Export Plug-In . SVG Version: 6.00 Build 0)  -->
<!DOCTYPE svg PUBLIC "-//W3C//DTD SVG 1.1//EN" "http://www.w3.org/Graphics/SVG/1.1/DTD/svg11.dtd">
<svg version="1.1" id="Layer_1" xmlns="http://www.w3.org/2000/svg" xmlns:xlink="http://www.w3.org/1999/xlink" x="0px" y="0px"
	 width="466px" height="93.808px" viewBox="0 0 466 93.808" enable-background="new 0 0 466 93.808" xml:space="preserve">
<g>
	<path fill-rule="evenodd" clip-rule="evenodd" fill="#B3B3B3" d="M71.676,20.846c-3.237-3.007-8.619-3.531-11.861-1.243
		c-2.254,1.59-2.729,4.345-1.06,6.158c1.197,1.303,1.101,1.704-0.58,2.418c-4.424,1.874-8.927-0.655-9.688-5.545
		c-0.363-2.336-0.404-4.722-0.71-7.069c-0.509-3.902-2.106-5.57-5.956-6.177c-3.985-0.627-7.592,0.994-11.221,2.211
		c-1.313,0.441-2.106,1.695-2.115,3.234c-0.006,0.859,0.181,1.088,1.145,0.761c4.155-1.407,7.328,1.053,7.027,5.382
		c-0.09,1.302-0.332,2.588-0.858,3.797c-1.57,3.618-7.37,5.231-10.501,2.912c-0.502-0.37-1.197-0.715-0.234-1.44
		c2.561-1.933,1.768-5.303-0.776-6.801c-3.024-1.782-6.15-1.599-9.195-0.148c-4.153,1.98-6.113,5.771-7.192,9.903
		c-3.242,12.403-1.256,24.076,5.464,34.969c1.088,1.758,1.094,1.743,2.567,0.188c1.817-1.92,3.229-4.146,4.82-6.624
		c0.562,1.37,0.39,2.396,0.125,3.412c-0.66,2.54-1.767,4.896-3.021,7.19c-0.303,0.553-0.763,1.197-0.096,1.762
		c0.56,0.471,1.133,0.041,1.633-0.245c1.189-0.689,2.2-1.609,3.124-2.621c1.845-2.021,3.461-4.218,4.852-6.573
		c0.83-1.402,1.604-2.838,2.468-4.376c0.716,1.039,0.452,1.952,0.219,2.866c-1.295,5.099-3.889,9.525-7.167,13.566
		c-0.865,1.068-0.828,1.66,0.253,2.559c5.306,4.399,11.244,7.659,17.657,10.116c0.938,0.36,1.779,0.373,2.737,0.012
		c6.199-2.341,11.953-5.447,17.077-9.689c2.39-1.979,1.946-1.486,0.45-3.478c-2.941-3.916-5.424-8.062-6.693-12.845
		c-0.251-0.939-0.548-1.907,0.24-3.089c1.469,2.862,2.941,5.483,4.76,7.889c1.54,2.042,3.13,4.036,5.291,5.472
		c0.59,0.392,1.295,0.89,1.956,0.379c0.791-0.611,0.102-1.292-0.207-1.88c-1.153-2.212-2.286-4.436-2.875-6.869
		c-0.252-1.044-0.801-2.164,0.203-3.433c1.487,2.439,3.03,4.591,4.769,6.612c1.113,1.292,1.656,1.14,2.53-0.269
		c6.193-9.967,8.171-20.746,6.174-32.241C76.48,27.764,74.898,23.845,71.676,20.846z"/>
	<path fill-rule="evenodd" clip-rule="evenodd" fill="#B3B3B3" d="M366.051,43.751c-2.255-8.284-4.498-16.571-6.748-24.858
		c-0.193-0.715-0.174-1.521-1.328-1.505c-3.56,0.054-7.12,0.027-10.68,0.014c-0.633-0.002-1.113,0.115-0.81,0.882
		c0.957,2.418-0.065,4.548-0.987,6.658c-5.618,12.871-11.623,25.561-17.935,38.109c-1.137,2.263-2.809,3.585-5.088,4.319
		c-4.607,1.483-9.357,1.302-14.097,1.107c-1.633-0.068-2.424-1.149-2.45-2.726c-0.024-1.424,0.006-2.851,0.11-4.266
		c0.645-8.812,1.226-17.628,2.012-26.425c0.531-5.922,0.61-11.945,3.064-17.575c-5.131,0-10.203,0-15.398,0
		c1.266,2.583,1.302,5.251,1.277,7.918c-0.113,12.523-1.256,24.987-2.304,37.452c-0.327,3.881-0.599,7.854-2.198,11.475
		c-0.766,1.731-0.219,1.752,1.235,1.749c12.341-0.039,24.685-0.045,37.024,0.006c1.551,0.006,2.571-0.051,1.928-2.029
		c-0.17-0.522-0.004-1.177,0.087-1.756c0.636-4.054,2.771-7.534,4.28-11.256c0.594-1.466,1.359-1.997,3.008-1.977
		c5.032,0.06,10.082,0.305,15.092-0.552c1.152-0.2,2.554-1.245,3.318-0.609c0.797,0.663,0.831,2.245,1.201,3.424
		c1.24,3.952,2.204,7.997,3.849,11.817c0.791,1.839,1.915,3.311,4.154,3.355c3.43,0.068,6.854-0.006,10.595-0.52
		c-3.066-3.212-4.48-6.99-5.843-10.781C369.894,58.173,368.01,50.949,366.051,43.751z M355.414,51.598
		c-4.49-0.063-8.977-0.027-13.805-0.027c3.174-6.887,6.186-13.425,9.201-19.971c0.469,0.108,0.48,0.5,0.567,0.795
		c1.71,5.901,3.376,11.816,5.138,17.704C356.877,51.308,356.681,51.612,355.414,51.598z"/>
	<path fill-rule="evenodd" clip-rule="evenodd" fill="#B3B3B3" d="M131.059,54.606c-1.188-6.296-5.645-9.263-11.402-10.814
		c-1.042-0.279-2.195-0.188-3.201-0.857c1.495-0.671,2.944-1.212,4.288-1.944c4.237-2.312,7.565-5.455,8.12-10.532
		c0.787-7.197-3.24-11.961-10.738-12.676c-9.342-0.893-18.716-0.118-28.343-0.439c1.55,2.766,1.487,5.458,1.468,8.113
		c-0.092,12.752-1.259,25.445-2.339,38.135c-0.321,3.755-0.569,7.603-2.311,11.062c-0.678,1.35-0.229,1.424,0.943,1.418
		c6.343-0.03,12.688,0.048,19.032-0.036c4.77-0.068,9.425-0.833,13.836-2.8C128.447,69.65,132.563,62.576,131.059,54.606z
		 M101.584,39.575c0.387-4.658,0.697-9.323,1.34-13.956c0.1-0.718,0.381-1.062,1.116-1.062c2.364,0.001,4.734-0.226,7.081,0.301
		c2.862,0.644,5.357,1.787,6.041,4.977c0.701,3.28-0.75,6.434-3.622,8.244c-2.904,1.831-6.164,2.306-9.504,2.467
		c-0.533,0-1.067-0.025-1.599,0.007C101.711,40.592,101.53,40.241,101.584,39.575z M112.988,67.358
		c-3.242,1.472-6.654,1.659-10.099,1.215c-2.638-0.341-2.885-0.776-2.836-3.442c0.009-0.475,0.002-0.946,0.002-1.424
		c-0.021,0-0.04,0-0.062-0.006c0.355-4.901,0.751-9.797,1.039-14.701c0.065-1.122,0.47-1.348,1.498-1.343
		c2.966,0.015,5.926,0.023,8.824,0.752c4.809,1.209,7.366,4.128,7.816,8.898C119.568,61.537,117.133,65.48,112.988,67.358z"/>
	<path fill-rule="evenodd" clip-rule="evenodd" fill="#B3B3B3" d="M240.385,73.349c-6.524-8.444-12.991-16.931-19.522-25.371
		c-0.625-0.809-0.413-1.054,0.392-1.294c0.453-0.136,0.899-0.301,1.338-0.481c7.639-3.18,11.663-8.806,11.624-16.244
		c-0.033-6.253-3.208-10.311-9.266-11.771c-1.961-0.475-3.958-0.749-5.983-0.753c-7.356-0.012-14.71-0.021-22.066-0.021
		c-0.257,0-0.582-0.13-0.794,0.253c0.67,1.184,1.012,2.497,1.124,3.854c0.11,1.357,0.167,2.728,0.152,4.089
		c-0.148,12.696-1.215,25.339-2.384,37.969c-0.368,3.979-0.601,8.054-2.565,11.719c-0.417,0.776,0.209,0.755,0.679,0.755
		c4.448,0.007,8.897,0,13.346,0.007c0.754,0,0.927-0.269,0.615-0.979c-0.824-1.887-0.897-3.904-0.932-5.925
		c-0.1-6.057,0.499-12.084,0.756-18.122c0.049-1.155,0.569-1.236,1.499-0.958c1.691,0.504,2.51,1.928,3.438,3.209
		c5.321,7.346,10.618,14.71,15.907,22.076c0.918,1.278,1.884,2.522,3.512,2.821c4.606,0.845,9.188,0.071,13.785-0.29
		C243.092,76.65,241.686,75.032,240.385,73.349z M212.498,42.678c-0.647,0.063-1.298,0.086-1.816,0.118
		c-3.228,0.068-3.274-0.021-2.961-3.073c0.463-4.528,0.893-9.058,1.266-13.594c0.092-1.111,0.478-1.579,1.615-1.56
		c2.065,0.041,4.134-0.145,6.187,0.301c3.701,0.803,5.814,3.445,5.718,7.227C222.361,37.741,218.229,42.114,212.498,42.678z"/>
	<path fill-rule="evenodd" clip-rule="evenodd" fill="#B3B3B3" d="M179.107,54.743c-3.279-11.862-6.479-23.748-9.75-35.613
		c-0.186-0.681,0.02-1.756-1.312-1.739c-3.614,0.047-7.232,0.024-10.851,0.011c-0.681-0.002-1.04,0.161-0.724,0.915
		c0.868,2.068,0.073,3.934-0.7,5.807c-3.955,9.582-8.504,18.896-12.942,28.256c-3.099,6.528-6.294,13.012-10.297,19.054
		c-0.994,1.501-2.109,2.922-3.341,4.617c4.457,0,8.644-0.003,12.833,0.004c0.933,0,0.847-0.618,0.755-1.228
		c-0.359-2.438,0.277-4.713,1.217-6.913c1.046-2.447,2.246-4.833,3.252-7.295c0.482-1.18,1.15-1.534,2.398-1.528
		c4.977,0.023,9.959,0.215,14.919-0.439c1.379-0.182,3.034-1.478,3.955-0.662c0.938,0.827,0.932,2.707,1.372,4.116
		c1.203,3.836,2.134,7.761,3.806,11.444c0.94,2.068,2.455,3.033,4.759,2.994c3.137-0.054,6.27-0.102,9.824-0.559
		c-1.996-2.018-3.173-4.179-4.168-6.456C182.023,64.743,180.495,59.761,179.107,54.743z M165.98,51.567c-4.718,0-9.436,0-14.456,0
		c3.157-6.792,6.202-13.34,9.474-20.376c1.384,4.743,2.618,8.963,3.848,13.186c0.579,1.983,1.168,3.968,1.715,5.961
		C166.704,50.86,167.039,51.567,165.98,51.567z"/>
	<path fill-rule="evenodd" clip-rule="evenodd" fill="#B3B3B3" d="M453.785,46.393c-2.408-2.032-5.105-3.654-7.744-5.36
		c-2.588-1.674-5.299-3.208-7.404-5.502c-3.902-4.246-2.33-9.75,3.204-11.407c5.768-1.725,12.444,0.551,16.364,5.547
		c0.298,0.382,0.393,1.006,1.123,1.074c0.354-3.26,0.713-6.497,1.055-9.737c0.116-1.116,0.639-2.507,0.168-3.283
		c-0.521-0.859-2.08-0.353-3.179-0.503c-6.116-0.828-12.253-1.565-18.385-0.158c-6.388,1.469-11.495,4.517-13.25,11.367
		c-1.743,6.809,0.421,12.346,5.681,16.824c2.993,2.55,6.337,4.584,9.662,6.647c2.121,1.313,4.227,2.648,5.907,4.528
		c3.569,3.991,2.555,9.633-2.297,11.901c-5.037,2.355-10.052,1.72-14.874-0.785c-3.302-1.716-5.567-4.507-7.412-7.71
		c-0.181,0.188-0.32,0.263-0.327,0.35c-0.294,4.256-0.551,8.519-0.877,12.775c-0.076,1.003,0.562,1.155,1.237,1.394
		c3.021,1.072,6.105,1.896,9.28,2.364c6.983,1.033,13.726,0.406,20.007-3.057c6.645-3.662,9.854-9.99,8.639-17.012
		C459.615,52.328,457.033,49.132,453.785,46.393z"/>
	<path fill-rule="evenodd" clip-rule="evenodd" fill="#B3B3B3" d="M275.052,67.785c-9.099,1.937-17.044-2.347-19.547-11.068
		c-2.536-8.834-1.464-17.497,3.266-25.368c6.216-10.34,19.199-10.494,26.056-0.565c0.249,0.362,0.346,0.893,1.017,1.013
		c0.373-3.538,0.753-7.049,1.113-10.561c0.121-1.176,0.659-2.624,0.173-3.466c-0.554-0.956-2.176-0.328-3.322-0.495
		c-4.225-0.613-8.462-1.173-12.749-0.936c-10.081,0.557-18.208,4.668-23.477,13.474c-4.779,7.983-6.006,16.763-4.851,25.893
		c0.641,5.041,2.591,9.584,5.862,13.519c8.056,9.698,21.978,9.636,30.147,4.749c4.566-2.729,7.317-6.893,9.063-12.328
		c-0.954,0.618-1.531,1-2.114,1.373C282.382,65.137,278.953,66.955,275.052,67.785z"/>
	<path fill-rule="evenodd" clip-rule="evenodd" fill="#B3B3B3" d="M404.67,47.033c6.268-10.232,12.543-20.441,20.422-29.57
		c-4.908,0-9.818,0-14.863,0c1.447,3.523,0.33,6.537-1.548,9.453c-2.981,4.634-5.898,9.312-8.856,13.959
		c-0.271,0.426-0.441,0.969-0.992,1.154c-0.457-0.126-0.457-0.55-0.57-0.855c-1.891-5.11-4.111-10.085-6.291-15.076
		c-0.969-2.222-1.84-4.495-3.153-6.557c-0.901-1.413-2.054-2.462-3.841-2.521c-3.889-0.129-7.771-0.047-11.954,0.475
		c2.196,1.955,3.675,4.15,5.022,6.431c4.527,7.676,8.105,15.782,11.087,24.179c1.129,3.178,1.288,6.359,0.985,9.616
		c-0.567,6.158-0.749,12.394-3.371,18.337c4.487,0,8.807,0,13.125,0c2.095,0,2.072,0.006,1.502-1.908
		c-0.219-0.734-0.352-1.498-0.461-2.259c-0.619-4.266-0.079-8.525,0.13-12.779C401.253,54.803,402.357,50.81,404.67,47.033z"/>
</g>
</svg>
