<?xml version="1.0" encoding="utf-8"?>
<!-- Generator: Adobe Illustrator 16.0.4, SVG Export Plug-In . SVG Version: 6.00 Build 0)  -->
<!DOCTYPE svg PUBLIC "-//W3C//DTD SVG 1.1//EN" "http://www.w3.org/Graphics/SVG/1.1/DTD/svg11.dtd">
<svg version="1.1" id="Layer_1" xmlns="http://www.w3.org/2000/svg" xmlns:xlink="http://www.w3.org/1999/xlink" x="0px" y="0px"
	 width="172px" height="120px" viewBox="0 0 172 120" enable-background="new 0 0 172 120" xml:space="preserve">
<g>
	<path fill="#B3B3B3" d="M67.5,43.6l6.022-12.646l10.151,22.942l2.688,6.063l0.025,0.042c0.788,1.265,1.696,2.443,2.697,3.528
		c0.169,0.178,0.339,0.356,0.517,0.534c0.519,0.535,1.061,1.035,1.629,1.51c0.187,0.16,0.382,0.314,0.568,0.467
		c0.229,0.186,0.457,0.363,0.695,0.525c0.289,0.221,0.576,0.425,0.873,0.629c1.137,0.771,2.341,1.449,3.604,2.034
		c0.399,0.179,0.806,0.356,1.213,0.525c1.23,0.492,2.511,0.9,3.833,1.205c0.434,0.102,0.866,0.195,1.307,0.279
		c0.543,0.095,1.086,0.179,1.629,0.237c0.491,0.061,0.983,0.111,1.476,0.145l1.246-0.348L88.296,31.217l-7.124-14.739l-2.561-5.285
		h-11.34L32.329,84.979H47.79L67.5,43.6z"/>
	<path fill="#B3B3B3" d="M106.861,21.65c12.34,0,19.692,8.294,21.236,10.245l9.601-9.873c-1.333-1.916-10.237-13.373-32.254-13.373
		c-8.872,0-16.902,2.781-23.229,8.057l6.293,12.993C93.215,24.577,99.873,21.65,106.861,21.65z"/>
	<path fill="#B3B3B3" d="M138.538,71.019l-9.151-9.549c-1.545,2.094-8.88,11.066-21.109,11.066c-0.67,0-1.247-0.025-1.781-0.068
		h-0.076c-7.303-0.475-13.977-3.756-18.497-8.98c-0.509-0.576-0.983-1.18-1.425-1.807c-0.296-0.415-0.586-0.839-0.856-1.28
		l-0.093-0.085v-0.077c0,0,0-0.007-0.01-0.007c0-0.01,0-0.01,0-0.018c-1.152-1.849-2.043-3.867-2.646-5.979
		c-0.009-0.018-0.009-0.035-0.016-0.051l-9.39-21.194l-5.19,10.905c-0.204,1.739-0.306,3.528-0.306,5.318
		c0,9.635,4.471,18.845,12.577,25.943c7.752,6.776,17.853,10.668,27.708,10.668C126.655,85.825,136.994,73.071,138.538,71.019z"/>
	<polygon fill="#B3B3B3" points="19.363,94.281 13.608,108.53 16.612,108.53 20.519,97.268 22.549,103.034 23.392,105.851 
		24.398,108.53 27.402,108.53 21.664,94.281 	"/>
	<polygon fill="#B3B3B3" points="32.289,102.39 38.434,102.39 38.434,100.142 32.289,100.142 32.289,96.707 39.397,96.707 
		39.397,94.281 29.449,94.281 29.449,108.53 39.58,108.53 39.58,106.104 32.289,106.104 	"/>
	<polygon fill="#B3B3B3" points="45.188,94.281 42.357,94.281 42.357,108.53 52.626,108.53 52.626,106.104 45.188,106.104 	"/>
	<polygon fill="#B3B3B3" points="57.783,94.281 54.944,94.281 54.944,108.53 65.222,108.53 65.222,106.104 57.783,106.104 	"/>
	<path fill="#B3B3B3" d="M93.408,106.206c-2.424,0-4.107-2.29-4.107-4.826c0-2.264,1.354-4.732,4.046-4.732
		c1.232,0,2.717,0.525,3.394,2.129l2.17-1.467c-0.902-1.849-2.891-3.112-5.485-3.112c-4.409,0-6.979,3.639-6.979,7.106
		c0,3.613,2.829,7.346,6.884,7.346c2.274,0,4.931-1.18,5.815-3.309l-2.325-1.307C96.159,105.578,94.666,106.206,93.408,106.206z"/>
	<path fill="#B3B3B3" d="M112.66,99.015c0-2.324-1.953-4.733-4.645-4.733h-6.449v14.249h2.829v-4.775h2.797l3.063,4.775h3.203
		l-3.43-5.36C111.637,102.508,112.66,100.846,112.66,99.015z M107.955,101.321h-3.56v-4.614h3.438c1.007,0,1.972,0.984,1.972,2.308
		C109.805,100.304,109.006,101.321,107.955,101.321z"/>
	<polygon fill="#B3B3B3" points="118.736,102.39 124.883,102.39 124.883,100.142 118.736,100.142 118.736,96.707 125.846,96.707 
		125.846,94.281 115.906,94.281 115.906,108.53 126.037,108.53 126.037,106.104 118.736,106.104 	"/>
	<path fill="#B3B3B3" d="M134.109,94.281h-5.304v14.249h5.304c4.374,0,7.188-2.834,7.188-7.15
		C141.297,97.454,138.875,94.281,134.109,94.281z M134.109,106.104h-2.465v-9.397h2.465c2.752,0,4.332,1.925,4.332,4.673
		C138.441,104.077,136.905,106.104,134.109,106.104z"/>
	<rect x="144.049" y="94.299" fill="#B3B3B3" width="2.838" height="14.231"/>
	<polygon fill="#B3B3B3" points="149.188,94.281 149.188,96.707 153.85,96.707 153.85,108.53 156.687,108.53 156.687,96.707 
		161.331,96.707 161.331,94.281 	"/>
	<polygon fill="#B3B3B3" points="71.276,94.281 65.521,108.53 68.524,108.53 72.431,97.268 74.461,103.034 75.305,105.851 
		76.311,108.53 79.314,108.53 73.577,94.281 	"/>
</g>
</svg>
